%TF.GenerationSoftware,KiCad,Pcbnew,9.0.0*%
%TF.CreationDate,2026-08-11T00:05:00-05:00*%
%TF.ProjectId,USB_with_Screen,5553425f-7769-4746-985f-53637265656e,rev?*%
%TF.SameCoordinates,Original*%
%TF.FileFunction,Copper,L4,Bot*%
%TF.FilePolarity,Positive*%
%FSLAX46Y46*%
G04 Gerber Fmt 4.6, Leading zero omitted, Abs format (unit mm)*
G04 Created by KiCad (PCBNEW 9.0.0) date 2026-08-11 00:05:00*
%MOMM*%
%LPD*%
G01*
G04 APERTURE LIST*
G04 Aperture macros list*
%AMRoundRect*
0 Rectangle with rounded corners*
0 $1 Rounding radius*
0 $2 $3 $4 $5 $6 $7 $8 $9 X,Y pos of 4 corners*
0 Add a 4 corners polygon primitive as box body*
4,1,4,$2,$3,$4,$5,$6,$7,$8,$9,$2,$3,0*
0 Add four circle primitives for the rounded corners*
1,1,$1+$1,$2,$3*
1,1,$1+$1,$4,$5*
1,1,$1+$1,$6,$7*
1,1,$1+$1,$8,$9*
0 Add four rect primitives between the rounded corners*
20,1,$1+$1,$2,$3,$4,$5,0*
20,1,$1+$1,$4,$5,$6,$7,0*
20,1,$1+$1,$6,$7,$8,$9,0*
20,1,$1+$1,$8,$9,$2,$3,0*%
G04 Aperture macros list end*
%TA.AperFunction,ComponentPad*%
%ADD10R,1.700000X1.700000*%
%TD*%
%TA.AperFunction,ComponentPad*%
%ADD11O,1.700000X1.700000*%
%TD*%
%TA.AperFunction,ComponentPad*%
%ADD12R,1.508000X1.508000*%
%TD*%
%TA.AperFunction,ComponentPad*%
%ADD13C,1.508000*%
%TD*%
%TA.AperFunction,ComponentPad*%
%ADD14R,1.300000X1.300000*%
%TD*%
%TA.AperFunction,ComponentPad*%
%ADD15C,1.431000*%
%TD*%
%TA.AperFunction,ComponentPad*%
%ADD16C,3.800000*%
%TD*%
%TA.AperFunction,SMDPad,CuDef*%
%ADD17RoundRect,0.250000X0.350000X0.450000X-0.350000X0.450000X-0.350000X-0.450000X0.350000X-0.450000X0*%
%TD*%
%TA.AperFunction,SMDPad,CuDef*%
%ADD18R,1.240000X0.800000*%
%TD*%
%TA.AperFunction,SMDPad,CuDef*%
%ADD19R,1.250000X1.150000*%
%TD*%
%TA.AperFunction,SMDPad,CuDef*%
%ADD20R,2.500000X1.150000*%
%TD*%
%TA.AperFunction,SMDPad,CuDef*%
%ADD21R,2.200000X1.150000*%
%TD*%
%TA.AperFunction,SMDPad,CuDef*%
%ADD22R,1.200000X1.150000*%
%TD*%
%TA.AperFunction,SMDPad,CuDef*%
%ADD23R,1.150000X1.500000*%
%TD*%
%TA.AperFunction,SMDPad,CuDef*%
%ADD24R,1.100000X1.300000*%
%TD*%
%TA.AperFunction,SMDPad,CuDef*%
%ADD25RoundRect,0.250000X0.337500X0.475000X-0.337500X0.475000X-0.337500X-0.475000X0.337500X-0.475000X0*%
%TD*%
%TA.AperFunction,SMDPad,CuDef*%
%ADD26R,0.254800X0.807999*%
%TD*%
%TA.AperFunction,SMDPad,CuDef*%
%ADD27R,0.807999X0.254800*%
%TD*%
%TA.AperFunction,SMDPad,CuDef*%
%ADD28R,4.191000X4.191000*%
%TD*%
%TA.AperFunction,SMDPad,CuDef*%
%ADD29RoundRect,0.250000X-0.337500X-0.475000X0.337500X-0.475000X0.337500X0.475000X-0.337500X0.475000X0*%
%TD*%
%TA.AperFunction,SMDPad,CuDef*%
%ADD30RoundRect,0.250000X0.475000X-0.337500X0.475000X0.337500X-0.475000X0.337500X-0.475000X-0.337500X0*%
%TD*%
%TA.AperFunction,SMDPad,CuDef*%
%ADD31RoundRect,0.250000X-0.350000X-0.450000X0.350000X-0.450000X0.350000X0.450000X-0.350000X0.450000X0*%
%TD*%
%TA.AperFunction,ViaPad*%
%ADD32C,0.600000*%
%TD*%
%TA.AperFunction,Conductor*%
%ADD33C,0.300000*%
%TD*%
%TA.AperFunction,Conductor*%
%ADD34C,0.700000*%
%TD*%
G04 APERTURE END LIST*
D10*
%TO.P,J3,1,Pin_1*%
%TO.N,GND*%
X166975000Y-84830000D03*
D11*
%TO.P,J3,2,Pin_2*%
%TO.N,+3.3V*%
X166975000Y-87370000D03*
%TO.P,J3,3,Pin_3*%
%TO.N,SCL{slash}SCK*%
X166975000Y-89910000D03*
%TO.P,J3,4,Pin_4*%
%TO.N,SDA{slash}MOSI*%
X166975000Y-92450000D03*
%TO.P,J3,5,Pin_5*%
%TO.N,RES{slash}RST*%
X166975000Y-94990000D03*
%TO.P,J3,6,Pin_6*%
%TO.N,DC{slash}RS*%
X166975000Y-97530000D03*
%TO.P,J3,7,Pin_7*%
%TO.N,CS*%
X166975000Y-100070000D03*
%TO.P,J3,8,Pin_8*%
%TO.N,+3.3V*%
X166975000Y-102610000D03*
%TD*%
D12*
%TO.P,U3,1,GP0*%
%TO.N,unconnected-(U3-GP0-Pad1)*%
X163440000Y-83620000D03*
D13*
%TO.P,U3,2,GP1*%
%TO.N,CS*%
X163440000Y-86160000D03*
%TO.P,U3,3,GP2*%
%TO.N,SCL{slash}SCK*%
X163440000Y-88700000D03*
%TO.P,U3,4,GP3*%
%TO.N,SDA{slash}MOSI*%
X163440000Y-91240000D03*
%TO.P,U3,5,GP4*%
%TO.N,RES{slash}RST*%
X163440000Y-93780000D03*
%TO.P,U3,6,GP5*%
%TO.N,DC{slash}RS*%
X163440000Y-96320000D03*
%TO.P,U3,7,GP6*%
%TO.N,unconnected-(U3-GP6-Pad7)*%
X163440000Y-98860000D03*
%TO.P,U3,8,GP7*%
%TO.N,unconnected-(U3-GP7-Pad8)*%
X163440000Y-101400000D03*
%TO.P,U3,9,GP8*%
%TO.N,unconnected-(U3-GP8-Pad9)*%
X163440000Y-103940000D03*
%TO.P,U3,10,GP9*%
%TO.N,unconnected-(U3-GP9-Pad10)*%
X160900000Y-103940000D03*
%TO.P,U3,11,GP10*%
%TO.N,unconnected-(U3-GP10-Pad11)*%
X158360000Y-103940000D03*
%TO.P,U3,12,GP11*%
%TO.N,unconnected-(U3-GP11-Pad12)*%
X155820000Y-103940000D03*
%TO.P,U3,13,GP12*%
%TO.N,unconnected-(U3-GP12-Pad13)*%
X153280000Y-103940000D03*
%TO.P,U3,14,GP13*%
%TO.N,unconnected-(U3-GP13-Pad14)*%
X150740000Y-103940000D03*
%TO.P,U3,15,GP14*%
%TO.N,unconnected-(U3-GP14-Pad15)*%
X148200000Y-103940000D03*
%TO.P,U3,16,GP15*%
%TO.N,unconnected-(U3-GP15-Pad16)*%
X148200000Y-101400000D03*
%TO.P,U3,17,GP26*%
%TO.N,unconnected-(U3-GP26-Pad17)*%
X148200000Y-98860000D03*
%TO.P,U3,18,GP27*%
%TO.N,unconnected-(U3-GP27-Pad18)*%
X148200000Y-96320000D03*
%TO.P,U3,19,GP28*%
%TO.N,unconnected-(U3-GP28-Pad19)*%
X148200000Y-93780000D03*
%TO.P,U3,20,GP29*%
%TO.N,unconnected-(U3-GP29-Pad20)*%
X148200000Y-91240000D03*
%TO.P,U3,21,3V3*%
%TO.N,unconnected-(U3-3V3-Pad21)*%
X148200000Y-88700000D03*
%TO.P,U3,22,GND*%
%TO.N,GND*%
X148200000Y-86160000D03*
%TO.P,U3,23,5V*%
%TO.N,+5V*%
X148200000Y-83620000D03*
%TD*%
D14*
%TO.P,J1,1,1*%
%TO.N,+5V*%
X144592000Y-97500000D03*
D15*
%TO.P,J1,2,2*%
%TO.N,USB_D-*%
X144592000Y-95000000D03*
%TO.P,J1,3,3*%
%TO.N,USB_D+*%
X144592000Y-93000000D03*
%TO.P,J1,4,4*%
%TO.N,GND*%
X144592000Y-90500000D03*
D16*
%TO.P,J1,MH1,MH1*%
X142492000Y-99700000D03*
%TO.P,J1,MH2,MH2*%
X142492000Y-88300000D03*
%TD*%
D17*
%TO.P,R_pull38,1*%
%TO.N,+3.3V*%
X178500000Y-103000000D03*
%TO.P,R_pull38,2*%
%TO.N,Net-(U1A-RESET_N)*%
X176500000Y-103000000D03*
%TD*%
D18*
%TO.P,J2,1,DAT2*%
%TO.N,SD_D2*%
X208419000Y-96300000D03*
%TO.P,J2,2,CD/DAT3*%
%TO.N,SD_D3*%
X208419000Y-95200000D03*
%TO.P,J2,3,CMD*%
%TO.N,SD_CMD*%
X208419000Y-94100000D03*
%TO.P,J2,4,VDD*%
%TO.N,SD_PWR*%
X208419000Y-93000000D03*
%TO.P,J2,5,CLK*%
%TO.N,SD_CLK*%
X208419000Y-91900000D03*
%TO.P,J2,6,VSS*%
%TO.N,GND*%
X208419000Y-90800000D03*
%TO.P,J2,7,DAT0*%
%TO.N,SD_D0*%
X208419000Y-89700000D03*
%TO.P,J2,8,DAT1*%
%TO.N,SD_D1*%
X208419000Y-88600000D03*
D19*
%TO.P,J2,9,COM*%
%TO.N,GND*%
X205789000Y-86655000D03*
D20*
%TO.P,J2,10,GROUND_1*%
X207789000Y-100545000D03*
D21*
%TO.P,J2,11,GROUND_2*%
X207939000Y-86255000D03*
D22*
%TO.P,J2,12,GROUND_3*%
X196789000Y-86655000D03*
D23*
%TO.P,J2,13,GROUND_4*%
X195664000Y-88460000D03*
%TO.P,J2,14,GROUND_5*%
X195664000Y-96240000D03*
D21*
%TO.P,J2,15,GROUND_6*%
X196459000Y-100545000D03*
%TD*%
D24*
%TO.P,Y1,1,TRI-STATE_(STBY)*%
%TO.N,+3.3V*%
X171500000Y-98500000D03*
%TO.P,Y1,2,GND/CASE*%
%TO.N,GND*%
X171500000Y-96400000D03*
%TO.P,Y1,3,OUTPUT*%
%TO.N,CLK_OUT*%
X173150000Y-96400000D03*
%TO.P,Y1,4,VDD*%
%TO.N,+3.3V*%
X173150000Y-98500000D03*
%TD*%
D25*
%TO.P,C46,1*%
%TO.N,Net-(U1B-VDD18PLL)*%
X175300000Y-93600000D03*
%TO.P,C46,2*%
%TO.N,GND*%
X173225000Y-93600000D03*
%TD*%
D17*
%TO.P,R_Precision47,1*%
%TO.N,Net-(U1A-RBIAS)*%
X175300000Y-91600000D03*
%TO.P,R_Precision47,2*%
%TO.N,GND*%
X173300000Y-91600000D03*
%TD*%
D26*
%TO.P,U1,1,USBDN_DM2*%
%TO.N,unconnected-(U1A-USBDN_DM2-Pad1)*%
X178206000Y-93146600D03*
%TO.P,U1,2,USBDN_DP2*%
%TO.N,unconnected-(U1A-USBDN_DP2-Pad2)*%
X178714000Y-93146600D03*
%TO.P,U1,3,USBDN_DM3*%
%TO.N,unconnected-(U1A-USBDN_DM3-Pad3)*%
X179222000Y-93146600D03*
%TO.P,U1,4,USBDN_DP3*%
%TO.N,unconnected-(U1A-USBDN_DP3-Pad4)*%
X179730000Y-93146600D03*
%TO.P,U1,5,VDDA33*%
%TO.N,+3.3V*%
X180238000Y-93146600D03*
%TO.P,U1,6,PRTCTL2*%
%TO.N,unconnected-(U1A-PRTCTL2-Pad6)*%
X180746000Y-93146600D03*
%TO.P,U1,7,PRTCTL3*%
%TO.N,unconnected-(U1A-PRTCTL3-Pad7)*%
X181254000Y-93146600D03*
%TO.P,U1,8,SPI_CE_N*%
%TO.N,unconnected-(U1A-SPI_CE_N-Pad8)*%
X181762000Y-93146600D03*
%TO.P,U1,9,SPI_CLK/SCL_EP*%
%TO.N,unconnected-(U1A-SPI_CLK{slash}SCL_EP-Pad9)*%
X182270000Y-93146600D03*
%TO.P,U1,10,SPI_DO/SDA_EP/SPI_SPD_SEL*%
%TO.N,unconnected-(U1A-SPI_DO{slash}SDA_EP{slash}SPI_SPD_SEL-Pad10)*%
X182778000Y-93146600D03*
%TO.P,U1,11,SPI_DI*%
%TO.N,unconnected-(U1A-SPI_DI-Pad11)*%
X183286000Y-93146600D03*
%TO.P,U1,12,VDD33*%
%TO.N,+3.3V*%
X183794000Y-93146600D03*
D27*
%TO.P,U1,13,SD_WP*%
%TO.N,GND*%
X184477400Y-93830000D03*
%TO.P,U1,14,SD_NCD*%
X184477400Y-94338000D03*
%TO.P,U1,15,VDD18*%
%TO.N,Net-(U1B-VDD18)*%
X184477400Y-94846000D03*
%TO.P,U1,16,VDD33*%
%TO.N,+3.3V*%
X184477400Y-95354000D03*
%TO.P,U1,17,SD_D1*%
%TO.N,SD_D1*%
X184477400Y-95862000D03*
%TO.P,U1,18,SD_D0*%
%TO.N,SD_D0*%
X184477400Y-96370000D03*
%TO.P,U1,19,SD_D7*%
%TO.N,unconnected-(U1A-SD_D7-Pad19)*%
X184477400Y-96878000D03*
%TO.P,U1,20,SD_D6*%
%TO.N,unconnected-(U1A-SD_D6-Pad20)*%
X184477400Y-97386000D03*
%TO.P,U1,21,SD_CLK*%
%TO.N,SD_CLK*%
X184477400Y-97894000D03*
%TO.P,U1,22,REG_EN*%
%TO.N,unconnected-(U1A-REG_EN-Pad22)*%
X184477400Y-98402000D03*
%TO.P,U1,23,SD_D5*%
%TO.N,unconnected-(U1A-SD_D5-Pad23)*%
X184477400Y-98910000D03*
%TO.P,U1,24,SD_CMD*%
%TO.N,SD_CMD*%
X184477400Y-99418000D03*
D26*
%TO.P,U1,25,VDD33*%
%TO.N,+3.3V*%
X183794000Y-100101400D03*
%TO.P,U1,26,VDD33*%
X183286000Y-100101400D03*
%TO.P,U1,27,TEST1*%
%TO.N,GND*%
X182778000Y-100101400D03*
%TO.P,U1,28,TEST2*%
X182270000Y-100101400D03*
%TO.P,U1,29,SDA*%
%TO.N,unconnected-(U1A-SDA-Pad29)*%
X181762000Y-100101400D03*
%TO.P,U1,30,SD_D4*%
%TO.N,unconnected-(U1A-SD_D4-Pad30)*%
X181254000Y-100101400D03*
%TO.P,U1,31,NC*%
%TO.N,unconnected-(U1B-NC-Pad31)*%
X180746000Y-100101400D03*
%TO.P,U1,32,SD_D3*%
%TO.N,SD_D3*%
X180238000Y-100101400D03*
%TO.P,U1,33,SD_D2*%
%TO.N,SD_D2*%
X179730000Y-100101400D03*
%TO.P,U1,34,VDD33*%
%TO.N,+3.3V*%
X179222000Y-100101400D03*
%TO.P,U1,35,CRD_PWR*%
%TO.N,SD_PWR*%
X178714000Y-100101400D03*
%TO.P,U1,36,SCL*%
%TO.N,unconnected-(U1A-SCL-Pad36)*%
X178206000Y-100101400D03*
D27*
%TO.P,U1,37,GPO1*%
%TO.N,unconnected-(U1A-GPO1-Pad37)*%
X177522600Y-99418000D03*
%TO.P,U1,38,RESET_N*%
%TO.N,Net-(U1A-RESET_N)*%
X177522600Y-98910000D03*
%TO.P,U1,39,VBUS_DET*%
%TO.N,Net-(U1A-VBUS_DET)*%
X177522600Y-98402000D03*
%TO.P,U1,40,TEST0*%
%TO.N,GND*%
X177522600Y-97894000D03*
%TO.P,U1,41,VDDA33*%
%TO.N,+3.3V*%
X177522600Y-97386000D03*
%TO.P,U1,42,USBUP_DP*%
%TO.N,USB_D+*%
X177522600Y-96878000D03*
%TO.P,U1,43,USBUP_DM*%
%TO.N,USB_D-*%
X177522600Y-96370000D03*
%TO.P,U1,44,XTAL2*%
%TO.N,unconnected-(U1A-XTAL2-Pad44)*%
X177522600Y-95862000D03*
%TO.P,U1,45,XTAL1(CLKIN)*%
%TO.N,CLK_OUT*%
X177522600Y-95354000D03*
%TO.P,U1,46,VDD18PLL*%
%TO.N,Net-(U1B-VDD18PLL)*%
X177522600Y-94846000D03*
%TO.P,U1,47,RBIAS*%
%TO.N,Net-(U1A-RBIAS)*%
X177522600Y-94338000D03*
%TO.P,U1,48,VDDA33*%
%TO.N,+3.3V*%
X177522600Y-93830000D03*
D28*
%TO.P,U1,49,EPAD*%
%TO.N,GND*%
X181000000Y-96624000D03*
%TD*%
D29*
%TO.P,C16,1*%
%TO.N,+3.3V*%
X186200000Y-94600000D03*
%TO.P,C16,2*%
%TO.N,GND*%
X188275000Y-94600000D03*
%TD*%
D30*
%TO.P,C48,1*%
%TO.N,+3.3V*%
X177600000Y-91437500D03*
%TO.P,C48,2*%
%TO.N,GND*%
X177600000Y-89362500D03*
%TD*%
D29*
%TO.P,C15,1*%
%TO.N,Net-(U1B-VDD18)*%
X186200000Y-92570000D03*
%TO.P,C15,2*%
%TO.N,GND*%
X188275000Y-92570000D03*
%TD*%
D31*
%TO.P,R1_39,1*%
%TO.N,+5V*%
X172100000Y-102300000D03*
%TO.P,R1_39,2*%
%TO.N,Net-(U1A-VBUS_DET)*%
X174100000Y-102300000D03*
%TD*%
D17*
%TO.P,R2_39,1*%
%TO.N,Net-(U1A-VBUS_DET)*%
X174100000Y-104300000D03*
%TO.P,R2_39,2*%
%TO.N,GND*%
X172100000Y-104300000D03*
%TD*%
D32*
%TO.N,GND*%
X144700000Y-104550000D03*
X207789000Y-100545000D03*
X181000000Y-96624000D03*
X208419000Y-90800000D03*
X172100000Y-104300000D03*
X176100000Y-97900000D03*
X207939000Y-86255000D03*
X177600000Y-89362500D03*
X173300000Y-91600000D03*
X195664000Y-88460000D03*
X196789000Y-86655000D03*
X145132000Y-83600000D03*
X171500000Y-96400000D03*
X195664000Y-96240000D03*
X196459000Y-100545000D03*
X173225000Y-93600000D03*
X205789000Y-86655000D03*
X188275000Y-94600000D03*
X188275000Y-92570000D03*
%TO.N,+3.3V*%
X177600000Y-91437500D03*
X171500000Y-98500000D03*
X183800000Y-91800000D03*
X178500000Y-99200000D03*
X186200000Y-94600000D03*
X183428000Y-99109885D03*
X178500000Y-103000000D03*
X173150000Y-98500000D03*
X142200000Y-105500000D03*
X180200000Y-91800000D03*
X185100000Y-100400000D03*
%TD*%
D33*
%TO.N,GND*%
X183286000Y-94338000D02*
X181000000Y-96624000D01*
X184200801Y-93830000D02*
X181406801Y-96624000D01*
X181406801Y-96624000D02*
X181000000Y-96624000D01*
X176106000Y-97894000D02*
X176100000Y-97900000D01*
X182778000Y-98402000D02*
X181000000Y-96624000D01*
X182778000Y-100101400D02*
X182778000Y-98402000D01*
X184477400Y-93830000D02*
X184200801Y-93830000D01*
X177522600Y-97894000D02*
X176106000Y-97894000D01*
X182270000Y-97894000D02*
X181000000Y-96624000D01*
X184477400Y-94338000D02*
X183286000Y-94338000D01*
X182270000Y-100101400D02*
X182270000Y-97894000D01*
%TO.N,USB_D+*%
X145817602Y-98517602D02*
X145817602Y-94225602D01*
X167743471Y-101000000D02*
X167472471Y-101271000D01*
X175400000Y-101000000D02*
X167743471Y-101000000D01*
X176201346Y-96878000D02*
X175400000Y-97679346D01*
X147265000Y-99965000D02*
X145817602Y-98517602D01*
X175400000Y-97679346D02*
X175400000Y-101000000D01*
X145817602Y-94225602D02*
X144592000Y-93000000D01*
X167472471Y-101271000D02*
X164873706Y-101271000D01*
X177522600Y-96878000D02*
X176201346Y-96878000D01*
X164873706Y-101271000D02*
X163567706Y-99965000D01*
X163567706Y-99965000D02*
X147265000Y-99965000D01*
%TO.N,USB_D-*%
X167472471Y-98869000D02*
X165011706Y-98869000D01*
X146318602Y-93218343D02*
X145033759Y-91933500D01*
X165011706Y-98869000D02*
X163567706Y-97425000D01*
X144150241Y-91933500D02*
X143525500Y-92558241D01*
X147185520Y-94885000D02*
X146318602Y-94018082D01*
X143525500Y-93933500D02*
X144592000Y-95000000D01*
X151197706Y-97425000D02*
X148657706Y-94885000D01*
X145033759Y-91933500D02*
X144150241Y-91933500D01*
X148657706Y-94885000D02*
X147185520Y-94885000D01*
X174900000Y-100300000D02*
X168903471Y-100300000D01*
X163567706Y-97425000D02*
X151197706Y-97425000D01*
X146318602Y-94018082D02*
X146318602Y-93218343D01*
X176000826Y-96370000D02*
X174900000Y-97470826D01*
X168903471Y-100300000D02*
X167472471Y-98869000D01*
X177522600Y-96370000D02*
X176000826Y-96370000D01*
X143525500Y-92558241D02*
X143525500Y-93933500D01*
X174900000Y-97470826D02*
X174900000Y-100300000D01*
D34*
%TO.N,+5V*%
X145116602Y-98024602D02*
X144592000Y-97500000D01*
X147659451Y-105245000D02*
X145116602Y-102702151D01*
X145116602Y-102702151D02*
X145116602Y-98024602D01*
X172100000Y-102300000D02*
X170900000Y-102300000D01*
X167955000Y-105245000D02*
X147659451Y-105245000D01*
X170900000Y-102300000D02*
X167955000Y-105245000D01*
D33*
%TO.N,+3.3V*%
X183286000Y-100101400D02*
X183286000Y-99251885D01*
X177522600Y-91514900D02*
X177600000Y-91437500D01*
X184092600Y-100400000D02*
X183794000Y-100101400D01*
X183794000Y-91806000D02*
X183800000Y-91800000D01*
X178500000Y-97638001D02*
X178500000Y-99200000D01*
X180238000Y-93146600D02*
X180238000Y-91838000D01*
X179222000Y-100101400D02*
X179222000Y-99376001D01*
X183794000Y-93146600D02*
X183794000Y-91806000D01*
X180238000Y-91838000D02*
X180200000Y-91800000D01*
X177522600Y-97386000D02*
X178247999Y-97386000D01*
X183286000Y-99251885D02*
X183428000Y-99109885D01*
X177522600Y-93830000D02*
X177522600Y-91514900D01*
X179045999Y-99200000D02*
X178500000Y-99200000D01*
X179222000Y-99376001D02*
X179045999Y-99200000D01*
X185446000Y-95354000D02*
X186200000Y-94600000D01*
X184477400Y-95354000D02*
X185446000Y-95354000D01*
X185100000Y-100400000D02*
X184092600Y-100400000D01*
X178247999Y-97386000D02*
X178500000Y-97638001D01*
%TO.N,SD_D2*%
X203167000Y-101552000D02*
X180254681Y-101552000D01*
X208419000Y-96300000D02*
X203167000Y-101552000D01*
X180254681Y-101552000D02*
X179730000Y-101027319D01*
X179730000Y-101027319D02*
X179730000Y-100101400D01*
%TO.N,SD_D0*%
X197159520Y-89700000D02*
X190489520Y-96370000D01*
X208419000Y-89700000D02*
X197159520Y-89700000D01*
X190489520Y-96370000D02*
X184477400Y-96370000D01*
%TO.N,SD_D1*%
X208419000Y-88600000D02*
X197551000Y-88600000D01*
X190289000Y-95862000D02*
X184477400Y-95862000D01*
X197551000Y-88600000D02*
X190289000Y-95862000D01*
%TO.N,SD_PWR*%
X203374520Y-102053000D02*
X179961601Y-102053000D01*
X209390000Y-93349000D02*
X209390000Y-97051000D01*
X208419000Y-93000000D02*
X209041000Y-93000000D01*
X209390000Y-97051000D02*
X208376520Y-97051000D01*
X179961601Y-102053000D02*
X178714000Y-100805399D01*
X178714000Y-100805399D02*
X178714000Y-100101400D01*
X208376520Y-97051000D02*
X203374520Y-102053000D01*
X209041000Y-93000000D02*
X209390000Y-93349000D01*
%TO.N,SD_D3*%
X208419000Y-95200000D02*
X199500000Y-95200000D01*
X180238000Y-100826799D02*
X180238000Y-100101400D01*
X193649000Y-101051000D02*
X180462201Y-101051000D01*
X199500000Y-95200000D02*
X193649000Y-101051000D01*
X180462201Y-101051000D02*
X180238000Y-100826799D01*
%TO.N,SD_CMD*%
X208419000Y-94100000D02*
X199831000Y-94100000D01*
X199831000Y-94100000D02*
X194513000Y-99418000D01*
X194513000Y-99418000D02*
X184477400Y-99418000D01*
%TO.N,SD_CLK*%
X195668040Y-91900000D02*
X189674040Y-97894000D01*
X208419000Y-91900000D02*
X195668040Y-91900000D01*
X189674040Y-97894000D02*
X184477400Y-97894000D01*
%TO.N,Net-(U1A-VBUS_DET)*%
X175999000Y-98999680D02*
X175999000Y-98999681D01*
X174100000Y-102300000D02*
X174100000Y-104300000D01*
X176296201Y-98702479D02*
X176296201Y-98702480D01*
X177522600Y-98409000D02*
X177004721Y-98409000D01*
X177522600Y-98402000D02*
X177522600Y-98409000D01*
X176296201Y-98702480D02*
X176292480Y-98706201D01*
X175200000Y-102300000D02*
X174100000Y-102300000D01*
X176292479Y-98706201D02*
X175999000Y-98999680D01*
X175999000Y-101501000D02*
X175200000Y-102300000D01*
X175999000Y-98999681D02*
X175999000Y-99414721D01*
X176589680Y-98409000D02*
X176296201Y-98702479D01*
X177004721Y-98409000D02*
X176589681Y-98409000D01*
X176292480Y-98706201D02*
X176292479Y-98706201D01*
X176589681Y-98409000D02*
X176589680Y-98409000D01*
X175999000Y-99414721D02*
X175999000Y-101501000D01*
%TO.N,Net-(U1A-RBIAS)*%
X176797201Y-94338000D02*
X176767601Y-94308400D01*
X177522600Y-94338000D02*
X176797201Y-94338000D01*
X176767601Y-94308400D02*
X176767601Y-93067601D01*
X176767601Y-93067601D02*
X175300000Y-91600000D01*
%TO.N,Net-(U1B-VDD18PLL)*%
X177522600Y-94846000D02*
X176546000Y-94846000D01*
X176546000Y-94846000D02*
X175300000Y-93600000D01*
%TO.N,Net-(U1A-RESET_N)*%
X176500000Y-99207201D02*
X176797201Y-98910000D01*
X176797201Y-98910000D02*
X177522600Y-98910000D01*
X176500000Y-103000000D02*
X176500000Y-99207201D01*
%TO.N,Net-(U1B-VDD18)*%
X185232399Y-94816400D02*
X185232399Y-93537601D01*
X185202799Y-94846000D02*
X185232399Y-94816400D01*
X185232399Y-93537601D02*
X186200000Y-92570000D01*
X184477400Y-94846000D02*
X185202799Y-94846000D01*
%TO.N,CLK_OUT*%
X174196000Y-95354000D02*
X177522600Y-95354000D01*
X173150000Y-96400000D02*
X174196000Y-95354000D01*
%TD*%
M02*
