%TF.GenerationSoftware,KiCad,Pcbnew,9.0.0*%
%TF.CreationDate,2026-08-11T00:05:00-05:00*%
%TF.ProjectId,USB_with_Screen,5553425f-7769-4746-985f-53637265656e,rev?*%
%TF.SameCoordinates,Original*%
%TF.FileFunction,Copper,L2,Inr*%
%TF.FilePolarity,Positive*%
%FSLAX46Y46*%
G04 Gerber Fmt 4.6, Leading zero omitted, Abs format (unit mm)*
G04 Created by KiCad (PCBNEW 9.0.0) date 2026-08-11 00:05:00*
%MOMM*%
%LPD*%
G01*
G04 APERTURE LIST*
%TA.AperFunction,ComponentPad*%
%ADD10R,1.700000X1.700000*%
%TD*%
%TA.AperFunction,ComponentPad*%
%ADD11O,1.700000X1.700000*%
%TD*%
%TA.AperFunction,ComponentPad*%
%ADD12R,1.508000X1.508000*%
%TD*%
%TA.AperFunction,ComponentPad*%
%ADD13C,1.508000*%
%TD*%
%TA.AperFunction,ComponentPad*%
%ADD14R,1.300000X1.300000*%
%TD*%
%TA.AperFunction,ComponentPad*%
%ADD15C,1.431000*%
%TD*%
%TA.AperFunction,ComponentPad*%
%ADD16C,3.800000*%
%TD*%
%TA.AperFunction,ViaPad*%
%ADD17C,0.600000*%
%TD*%
G04 APERTURE END LIST*
D10*
%TO.N,GND*%
%TO.C,J3*%
X166975000Y-84830000D03*
D11*
%TO.N,+3.3V*%
X166975000Y-87370000D03*
%TO.N,SCL{slash}SCK*%
X166975000Y-89910000D03*
%TO.N,SDA{slash}MOSI*%
X166975000Y-92450000D03*
%TO.N,RES{slash}RST*%
X166975000Y-94990000D03*
%TO.N,DC{slash}RS*%
X166975000Y-97530000D03*
%TO.N,CS*%
X166975000Y-100070000D03*
%TO.N,+3.3V*%
X166975000Y-102610000D03*
%TD*%
D12*
%TO.N,unconnected-(U3-GP0-Pad1)*%
%TO.C,U3*%
X163440000Y-83620000D03*
D13*
%TO.N,CS*%
X163440000Y-86160000D03*
%TO.N,SCL{slash}SCK*%
X163440000Y-88700000D03*
%TO.N,SDA{slash}MOSI*%
X163440000Y-91240000D03*
%TO.N,RES{slash}RST*%
X163440000Y-93780000D03*
%TO.N,DC{slash}RS*%
X163440000Y-96320000D03*
%TO.N,unconnected-(U3-GP6-Pad7)*%
X163440000Y-98860000D03*
%TO.N,unconnected-(U3-GP7-Pad8)*%
X163440000Y-101400000D03*
%TO.N,unconnected-(U3-GP8-Pad9)*%
X163440000Y-103940000D03*
%TO.N,unconnected-(U3-GP9-Pad10)*%
X160900000Y-103940000D03*
%TO.N,unconnected-(U3-GP10-Pad11)*%
X158360000Y-103940000D03*
%TO.N,unconnected-(U3-GP11-Pad12)*%
X155820000Y-103940000D03*
%TO.N,unconnected-(U3-GP12-Pad13)*%
X153280000Y-103940000D03*
%TO.N,unconnected-(U3-GP13-Pad14)*%
X150740000Y-103940000D03*
%TO.N,unconnected-(U3-GP14-Pad15)*%
X148200000Y-103940000D03*
%TO.N,unconnected-(U3-GP15-Pad16)*%
X148200000Y-101400000D03*
%TO.N,unconnected-(U3-GP26-Pad17)*%
X148200000Y-98860000D03*
%TO.N,unconnected-(U3-GP27-Pad18)*%
X148200000Y-96320000D03*
%TO.N,unconnected-(U3-GP28-Pad19)*%
X148200000Y-93780000D03*
%TO.N,unconnected-(U3-GP29-Pad20)*%
X148200000Y-91240000D03*
%TO.N,unconnected-(U3-3V3-Pad21)*%
X148200000Y-88700000D03*
%TO.N,GND*%
X148200000Y-86160000D03*
%TO.N,+5V*%
X148200000Y-83620000D03*
%TD*%
D14*
%TO.N,+5V*%
%TO.C,J1*%
X144592000Y-97500000D03*
D15*
%TO.N,USB_D-*%
X144592000Y-95000000D03*
%TO.N,USB_D+*%
X144592000Y-93000000D03*
%TO.N,GND*%
X144592000Y-90500000D03*
D16*
X142492000Y-99700000D03*
X142492000Y-88300000D03*
%TD*%
D17*
%TO.N,GND*%
X144700000Y-104550000D03*
X207789000Y-100545000D03*
X181000000Y-96624000D03*
X208419000Y-90800000D03*
X172100000Y-104300000D03*
X176100000Y-97900000D03*
X207939000Y-86255000D03*
X177600000Y-89362500D03*
X173300000Y-91600000D03*
X195664000Y-88460000D03*
X196789000Y-86655000D03*
X145132000Y-83600000D03*
X171500000Y-96400000D03*
X195664000Y-96240000D03*
X196459000Y-100545000D03*
X173225000Y-93600000D03*
X205789000Y-86655000D03*
X188275000Y-94600000D03*
X188275000Y-92570000D03*
%TO.N,+3.3V*%
X177600000Y-91437500D03*
X171500000Y-98500000D03*
X183800000Y-91800000D03*
X178500000Y-99200000D03*
X186200000Y-94600000D03*
X183428000Y-99109885D03*
X178500000Y-103000000D03*
X173150000Y-98500000D03*
X142200000Y-105500000D03*
X180200000Y-91800000D03*
X185100000Y-100400000D03*
%TD*%
%TA.AperFunction,Conductor*%
%TO.N,GND*%
G36*
X209004418Y-82000816D02*
G01*
X209204561Y-82015130D01*
X209222063Y-82017647D01*
X209413797Y-82059355D01*
X209430755Y-82064334D01*
X209614609Y-82132909D01*
X209630701Y-82140259D01*
X209802904Y-82234288D01*
X209817784Y-82243849D01*
X209974867Y-82361441D01*
X209988237Y-82373027D01*
X210126972Y-82511762D01*
X210138558Y-82525132D01*
X210241851Y-82663115D01*
X210256146Y-82682210D01*
X210265711Y-82697095D01*
X210359740Y-82869298D01*
X210367090Y-82885390D01*
X210435662Y-83069236D01*
X210440646Y-83086212D01*
X210482351Y-83277931D01*
X210484869Y-83295442D01*
X210499184Y-83495580D01*
X210499500Y-83504427D01*
X210499500Y-104495572D01*
X210499184Y-104504419D01*
X210484869Y-104704557D01*
X210482351Y-104722068D01*
X210440646Y-104913787D01*
X210435662Y-104930763D01*
X210367090Y-105114609D01*
X210359740Y-105130701D01*
X210265711Y-105302904D01*
X210256146Y-105317789D01*
X210138558Y-105474867D01*
X210126972Y-105488237D01*
X209988237Y-105626972D01*
X209974867Y-105638558D01*
X209817789Y-105756146D01*
X209802904Y-105765711D01*
X209630701Y-105859740D01*
X209614609Y-105867090D01*
X209430763Y-105935662D01*
X209413787Y-105940646D01*
X209222068Y-105982351D01*
X209204557Y-105984869D01*
X209023779Y-105997799D01*
X209004417Y-105999184D01*
X208995572Y-105999500D01*
X143045134Y-105999500D01*
X142978095Y-105979815D01*
X142932340Y-105927011D01*
X142922396Y-105857853D01*
X142930573Y-105828047D01*
X142932380Y-105823685D01*
X142969737Y-105733497D01*
X143000500Y-105578842D01*
X143000500Y-105421158D01*
X143000500Y-105421155D01*
X143000499Y-105421153D01*
X142979938Y-105317789D01*
X142969737Y-105266503D01*
X142969735Y-105266498D01*
X142909397Y-105120827D01*
X142909390Y-105120814D01*
X142821789Y-104989711D01*
X142821786Y-104989707D01*
X142710292Y-104878213D01*
X142710288Y-104878210D01*
X142579185Y-104790609D01*
X142579172Y-104790602D01*
X142433501Y-104730264D01*
X142433489Y-104730261D01*
X142278845Y-104699500D01*
X142278842Y-104699500D01*
X142121158Y-104699500D01*
X142121155Y-104699500D01*
X141966510Y-104730261D01*
X141966498Y-104730264D01*
X141820827Y-104790602D01*
X141820814Y-104790609D01*
X141689711Y-104878210D01*
X141689707Y-104878213D01*
X141578213Y-104989707D01*
X141578210Y-104989711D01*
X141490609Y-105120814D01*
X141490602Y-105120827D01*
X141430264Y-105266498D01*
X141430261Y-105266510D01*
X141399500Y-105421153D01*
X141399500Y-105578846D01*
X141430261Y-105733489D01*
X141430264Y-105733499D01*
X141431442Y-105736344D01*
X141431614Y-105737951D01*
X141432031Y-105739324D01*
X141431770Y-105739402D01*
X141433576Y-105756217D01*
X141440561Y-105774943D01*
X141437232Y-105790244D01*
X141438905Y-105805814D01*
X141429957Y-105823685D01*
X141425709Y-105843216D01*
X141414636Y-105854288D01*
X141407626Y-105868291D01*
X141390436Y-105878488D01*
X141376303Y-105892621D01*
X141361000Y-105895949D01*
X141347534Y-105903938D01*
X141327561Y-105903223D01*
X141308030Y-105907472D01*
X141280815Y-105901551D01*
X141277709Y-105901440D01*
X141273543Y-105899969D01*
X141185390Y-105867089D01*
X141169298Y-105859740D01*
X140997095Y-105765711D01*
X140982210Y-105756146D01*
X140951957Y-105733499D01*
X140825132Y-105638558D01*
X140811762Y-105626972D01*
X140673027Y-105488237D01*
X140661441Y-105474867D01*
X140621235Y-105421158D01*
X140543849Y-105317784D01*
X140534288Y-105302904D01*
X140440259Y-105130701D01*
X140432909Y-105114609D01*
X140428426Y-105102591D01*
X140364334Y-104930755D01*
X140359355Y-104913797D01*
X140317647Y-104722063D01*
X140315130Y-104704556D01*
X140314768Y-104699500D01*
X140300816Y-104504429D01*
X140300500Y-104495583D01*
X140300500Y-101153669D01*
X140320185Y-101086630D01*
X140372989Y-101040875D01*
X140442147Y-101030931D01*
X140505703Y-101059956D01*
X140529498Y-101087703D01*
X140531570Y-101091001D01*
X140627346Y-101211099D01*
X141344511Y-100493934D01*
X141427953Y-100608782D01*
X141583218Y-100764047D01*
X141698064Y-100847487D01*
X140980899Y-101564652D01*
X140980900Y-101564653D01*
X141100993Y-101660427D01*
X141100997Y-101660429D01*
X141329247Y-101803847D01*
X141572104Y-101920801D01*
X141572118Y-101920807D01*
X141826536Y-102009832D01*
X141826548Y-102009836D01*
X142089348Y-102069818D01*
X142089366Y-102069821D01*
X142357212Y-102099999D01*
X142357216Y-102100000D01*
X142626784Y-102100000D01*
X142626787Y-102099999D01*
X142894633Y-102069821D01*
X142894651Y-102069818D01*
X143157451Y-102009836D01*
X143157463Y-102009832D01*
X143411881Y-101920807D01*
X143411895Y-101920801D01*
X143654752Y-101803847D01*
X143882999Y-101660431D01*
X144003098Y-101564653D01*
X144003099Y-101564652D01*
X143285934Y-100847488D01*
X143400782Y-100764047D01*
X143556047Y-100608782D01*
X143639488Y-100493934D01*
X144356652Y-101211099D01*
X144356653Y-101211098D01*
X144452431Y-101090999D01*
X144595847Y-100862752D01*
X144712801Y-100619895D01*
X144712807Y-100619881D01*
X144801832Y-100365463D01*
X144801836Y-100365451D01*
X144861818Y-100102651D01*
X144861821Y-100102633D01*
X144891999Y-99834787D01*
X144892000Y-99834783D01*
X144892000Y-99565216D01*
X144891999Y-99565212D01*
X144861821Y-99297366D01*
X144861818Y-99297348D01*
X144801836Y-99034548D01*
X144801832Y-99034536D01*
X144725172Y-98815454D01*
X144721610Y-98745675D01*
X144756338Y-98685048D01*
X144818332Y-98652820D01*
X144842209Y-98650499D01*
X145289872Y-98650499D01*
X145349483Y-98644091D01*
X145484331Y-98593796D01*
X145599546Y-98507546D01*
X145685796Y-98392331D01*
X145736091Y-98257483D01*
X145742500Y-98197873D01*
X145742499Y-96802128D01*
X145736091Y-96742517D01*
X145685796Y-96607669D01*
X145685795Y-96607668D01*
X145685793Y-96607664D01*
X145599547Y-96492455D01*
X145599544Y-96492452D01*
X145484335Y-96406206D01*
X145484328Y-96406202D01*
X145349482Y-96355908D01*
X145349483Y-96355908D01*
X145289883Y-96349501D01*
X145289881Y-96349500D01*
X145289873Y-96349500D01*
X145289865Y-96349500D01*
X145138424Y-96349500D01*
X145071385Y-96329815D01*
X145025630Y-96277011D01*
X145015686Y-96207853D01*
X145044711Y-96144297D01*
X145082129Y-96115015D01*
X145229323Y-96040016D01*
X145384171Y-95927513D01*
X145519513Y-95792171D01*
X145632016Y-95637323D01*
X145718911Y-95466782D01*
X145778058Y-95284747D01*
X145808000Y-95095701D01*
X145808000Y-94904299D01*
X145778058Y-94715253D01*
X145718911Y-94533218D01*
X145632016Y-94362677D01*
X145573531Y-94282179D01*
X145519518Y-94207835D01*
X145519514Y-94207830D01*
X145399365Y-94087681D01*
X145365880Y-94026358D01*
X145370864Y-93956666D01*
X145399365Y-93912319D01*
X145432953Y-93878731D01*
X145519513Y-93792171D01*
X145632016Y-93637323D01*
X145718911Y-93466782D01*
X145778058Y-93284747D01*
X145808000Y-93095701D01*
X145808000Y-92904299D01*
X145778058Y-92715253D01*
X145718911Y-92533218D01*
X145632016Y-92362677D01*
X145593954Y-92310289D01*
X145519518Y-92207835D01*
X145519514Y-92207830D01*
X145384169Y-92072485D01*
X145384164Y-92072481D01*
X145229326Y-91959986D01*
X145229325Y-91959985D01*
X145229323Y-91959984D01*
X145058782Y-91873089D01*
X145042096Y-91867667D01*
X144984421Y-91828230D01*
X144957223Y-91763872D01*
X144969138Y-91695025D01*
X145016382Y-91643550D01*
X145042100Y-91631805D01*
X145058593Y-91626446D01*
X145229061Y-91539588D01*
X145257425Y-91518980D01*
X145257425Y-91518979D01*
X144688749Y-90950302D01*
X144769553Y-90928651D01*
X144874446Y-90868091D01*
X144960091Y-90782446D01*
X145020651Y-90677553D01*
X145042302Y-90596748D01*
X145610979Y-91165425D01*
X145610980Y-91165425D01*
X145631588Y-91137061D01*
X145718446Y-90966592D01*
X145777571Y-90784626D01*
X145807500Y-90595667D01*
X145807500Y-90404332D01*
X145777571Y-90215373D01*
X145718446Y-90033407D01*
X145631586Y-89862934D01*
X145610980Y-89834573D01*
X145610979Y-89834572D01*
X145042302Y-90403250D01*
X145020651Y-90322447D01*
X144960091Y-90217554D01*
X144874446Y-90131909D01*
X144769553Y-90071349D01*
X144688749Y-90049697D01*
X145257425Y-89481019D01*
X145229059Y-89460410D01*
X145058592Y-89373553D01*
X144876626Y-89314428D01*
X144876628Y-89314428D01*
X144836761Y-89308114D01*
X144773627Y-89278184D01*
X144736696Y-89218872D01*
X144737694Y-89149010D01*
X144739119Y-89144686D01*
X144801832Y-88965463D01*
X144801836Y-88965451D01*
X144861818Y-88702651D01*
X144861821Y-88702634D01*
X144875355Y-88582514D01*
X144875355Y-88582513D01*
X144891999Y-88434785D01*
X144892000Y-88434783D01*
X144892000Y-88165216D01*
X144891999Y-88165212D01*
X144861821Y-87897366D01*
X144861818Y-87897348D01*
X144801836Y-87634548D01*
X144801832Y-87634536D01*
X144712807Y-87380118D01*
X144712801Y-87380104D01*
X144595847Y-87137247D01*
X144452429Y-86908997D01*
X144452427Y-86908993D01*
X144356653Y-86788900D01*
X144356652Y-86788899D01*
X143603691Y-87541860D01*
X143517909Y-87423791D01*
X143368209Y-87274091D01*
X143250138Y-87188307D01*
X144003099Y-86435346D01*
X143882998Y-86339568D01*
X143654752Y-86196152D01*
X143596617Y-86168156D01*
X143411895Y-86079198D01*
X143411881Y-86079192D01*
X143157463Y-85990167D01*
X143157451Y-85990163D01*
X142894651Y-85930181D01*
X142894633Y-85930178D01*
X142626787Y-85900000D01*
X142357212Y-85900000D01*
X142089366Y-85930178D01*
X142089348Y-85930181D01*
X141826548Y-85990163D01*
X141826536Y-85990167D01*
X141572118Y-86079192D01*
X141572104Y-86079198D01*
X141329247Y-86196152D01*
X141101001Y-86339568D01*
X140980899Y-86435345D01*
X141733861Y-87188307D01*
X141615791Y-87274091D01*
X141466091Y-87423791D01*
X141380308Y-87541861D01*
X140627345Y-86788899D01*
X140531566Y-86909003D01*
X140529493Y-86912303D01*
X140477158Y-86958594D01*
X140408104Y-86969241D01*
X140344256Y-86940865D01*
X140305885Y-86882475D01*
X140300500Y-86846330D01*
X140300500Y-83521263D01*
X146945500Y-83521263D01*
X146945500Y-83718736D01*
X146976389Y-83913763D01*
X146982371Y-83932172D01*
X147037409Y-84101561D01*
X147127056Y-84277501D01*
X147127058Y-84277504D01*
X147243115Y-84437246D01*
X147382753Y-84576884D01*
X147542494Y-84692941D01*
X147542496Y-84692942D01*
X147542499Y-84692944D01*
X147712956Y-84779797D01*
X147763749Y-84827768D01*
X147780544Y-84895589D01*
X147758007Y-84961724D01*
X147712954Y-85000763D01*
X147542767Y-85087479D01*
X147542760Y-85087483D01*
X147507010Y-85113456D01*
X147507010Y-85113457D01*
X148070591Y-85677037D01*
X148007007Y-85694075D01*
X147892993Y-85759901D01*
X147799901Y-85852993D01*
X147734075Y-85967007D01*
X147717037Y-86030590D01*
X147153457Y-85467010D01*
X147153456Y-85467010D01*
X147127483Y-85502760D01*
X147127482Y-85502762D01*
X147037873Y-85678626D01*
X146976876Y-85866353D01*
X146946000Y-86061302D01*
X146946000Y-86258697D01*
X146976876Y-86453646D01*
X147037873Y-86641373D01*
X147127483Y-86817239D01*
X147153457Y-86852988D01*
X147153457Y-86852989D01*
X147717037Y-86289409D01*
X147734075Y-86352993D01*
X147799901Y-86467007D01*
X147892993Y-86560099D01*
X148007007Y-86625925D01*
X148070590Y-86642962D01*
X147507009Y-87206541D01*
X147507010Y-87206542D01*
X147542755Y-87232512D01*
X147542768Y-87232520D01*
X147712953Y-87319235D01*
X147763749Y-87367210D01*
X147780544Y-87435031D01*
X147758006Y-87501166D01*
X147712954Y-87540203D01*
X147551189Y-87622627D01*
X147542495Y-87627058D01*
X147382753Y-87743115D01*
X147243115Y-87882753D01*
X147127058Y-88042495D01*
X147037408Y-88218441D01*
X146976389Y-88406236D01*
X146945500Y-88601263D01*
X146945500Y-88798736D01*
X146976389Y-88993763D01*
X147035670Y-89176209D01*
X147037409Y-89181561D01*
X147101892Y-89308114D01*
X147127058Y-89357504D01*
X147243115Y-89517246D01*
X147382753Y-89656884D01*
X147511416Y-89750361D01*
X147542499Y-89772944D01*
X147712404Y-89859516D01*
X147763199Y-89907490D01*
X147779994Y-89975311D01*
X147757456Y-90041446D01*
X147712404Y-90080483D01*
X147611478Y-90131909D01*
X147542495Y-90167058D01*
X147382753Y-90283115D01*
X147243115Y-90422753D01*
X147127058Y-90582495D01*
X147037408Y-90758441D01*
X146976389Y-90946236D01*
X146945500Y-91141263D01*
X146945500Y-91338736D01*
X146976389Y-91533763D01*
X147021031Y-91671155D01*
X147037409Y-91721561D01*
X147114618Y-91873090D01*
X147127058Y-91897504D01*
X147243115Y-92057246D01*
X147382753Y-92196884D01*
X147532234Y-92305486D01*
X147542499Y-92312944D01*
X147712404Y-92399516D01*
X147763199Y-92447490D01*
X147779994Y-92515311D01*
X147757456Y-92581446D01*
X147712404Y-92620483D01*
X147555321Y-92700522D01*
X147542495Y-92707058D01*
X147382753Y-92823115D01*
X147243115Y-92962753D01*
X147127058Y-93122495D01*
X147037408Y-93298441D01*
X146976389Y-93486236D01*
X146945500Y-93681263D01*
X146945500Y-93878736D01*
X146976389Y-94073763D01*
X147024172Y-94220821D01*
X147037409Y-94261561D01*
X147090884Y-94366510D01*
X147127058Y-94437504D01*
X147243115Y-94597246D01*
X147382753Y-94736884D01*
X147515721Y-94833489D01*
X147542499Y-94852944D01*
X147712404Y-94939516D01*
X147763199Y-94987490D01*
X147779994Y-95055311D01*
X147757456Y-95121446D01*
X147712404Y-95160483D01*
X147592094Y-95221786D01*
X147542495Y-95247058D01*
X147382753Y-95363115D01*
X147243115Y-95502753D01*
X147127058Y-95662495D01*
X147037408Y-95838441D01*
X146976389Y-96026236D01*
X146945500Y-96221263D01*
X146945500Y-96418736D01*
X146976389Y-96613763D01*
X147023999Y-96760289D01*
X147037409Y-96801561D01*
X147127056Y-96977501D01*
X147127058Y-96977504D01*
X147243115Y-97137246D01*
X147382753Y-97276884D01*
X147456112Y-97330181D01*
X147542499Y-97392944D01*
X147712404Y-97479516D01*
X147763199Y-97527490D01*
X147779994Y-97595311D01*
X147757456Y-97661446D01*
X147712404Y-97700483D01*
X147555321Y-97780522D01*
X147542495Y-97787058D01*
X147382753Y-97903115D01*
X147243115Y-98042753D01*
X147127058Y-98202495D01*
X147127056Y-98202499D01*
X147056921Y-98340146D01*
X147037408Y-98378441D01*
X146976389Y-98566236D01*
X146945500Y-98761263D01*
X146945500Y-98958736D01*
X146976389Y-99153763D01*
X147037408Y-99341558D01*
X147037409Y-99341561D01*
X147112570Y-99489070D01*
X147127058Y-99517504D01*
X147243115Y-99677246D01*
X147382753Y-99816884D01*
X147511449Y-99910385D01*
X147542499Y-99932944D01*
X147712404Y-100019516D01*
X147763199Y-100067490D01*
X147779994Y-100135311D01*
X147757456Y-100201446D01*
X147712404Y-100240483D01*
X147604101Y-100295668D01*
X147542495Y-100327058D01*
X147382753Y-100443115D01*
X147243115Y-100582753D01*
X147127058Y-100742495D01*
X147037408Y-100918441D01*
X146976389Y-101106236D01*
X146945500Y-101301263D01*
X146945500Y-101498736D01*
X146976389Y-101693763D01*
X147012158Y-101803847D01*
X147037409Y-101881561D01*
X147127056Y-102057501D01*
X147127058Y-102057504D01*
X147243115Y-102217246D01*
X147382753Y-102356884D01*
X147532234Y-102465486D01*
X147542499Y-102472944D01*
X147712404Y-102559516D01*
X147763199Y-102607490D01*
X147779994Y-102675311D01*
X147757456Y-102741446D01*
X147712404Y-102780483D01*
X147555321Y-102860522D01*
X147542495Y-102867058D01*
X147382753Y-102983115D01*
X147243115Y-103122753D01*
X147127058Y-103282495D01*
X147037408Y-103458441D01*
X146976389Y-103646236D01*
X146945500Y-103841263D01*
X146945500Y-104038736D01*
X146976389Y-104233763D01*
X147017408Y-104360005D01*
X147037409Y-104421561D01*
X147077383Y-104500013D01*
X147127058Y-104597504D01*
X147243115Y-104757246D01*
X147382753Y-104896884D01*
X147510521Y-104989711D01*
X147542499Y-105012944D01*
X147718439Y-105102591D01*
X147843637Y-105143270D01*
X147906236Y-105163610D01*
X148101264Y-105194500D01*
X148101269Y-105194500D01*
X148298736Y-105194500D01*
X148493763Y-105163610D01*
X148681561Y-105102591D01*
X148857501Y-105012944D01*
X148947192Y-104947779D01*
X149017246Y-104896884D01*
X149017248Y-104896881D01*
X149017252Y-104896879D01*
X149156879Y-104757252D01*
X149156881Y-104757248D01*
X149156884Y-104757246D01*
X149272941Y-104597505D01*
X149272942Y-104597504D01*
X149272944Y-104597501D01*
X149359517Y-104427593D01*
X149407490Y-104376800D01*
X149475311Y-104360005D01*
X149541446Y-104382542D01*
X149580482Y-104427593D01*
X149617383Y-104500013D01*
X149667058Y-104597505D01*
X149783115Y-104757246D01*
X149922753Y-104896884D01*
X150050521Y-104989711D01*
X150082499Y-105012944D01*
X150258439Y-105102591D01*
X150383637Y-105143270D01*
X150446236Y-105163610D01*
X150641264Y-105194500D01*
X150641269Y-105194500D01*
X150838736Y-105194500D01*
X151033763Y-105163610D01*
X151221561Y-105102591D01*
X151397501Y-105012944D01*
X151487192Y-104947779D01*
X151557246Y-104896884D01*
X151557248Y-104896881D01*
X151557252Y-104896879D01*
X151696879Y-104757252D01*
X151696881Y-104757248D01*
X151696884Y-104757246D01*
X151812941Y-104597505D01*
X151812942Y-104597504D01*
X151812944Y-104597501D01*
X151899517Y-104427593D01*
X151947490Y-104376800D01*
X152015311Y-104360005D01*
X152081446Y-104382542D01*
X152120482Y-104427593D01*
X152157383Y-104500013D01*
X152207058Y-104597505D01*
X152323115Y-104757246D01*
X152462753Y-104896884D01*
X152590521Y-104989711D01*
X152622499Y-105012944D01*
X152798439Y-105102591D01*
X152923637Y-105143270D01*
X152986236Y-105163610D01*
X153181264Y-105194500D01*
X153181269Y-105194500D01*
X153378736Y-105194500D01*
X153573763Y-105163610D01*
X153761561Y-105102591D01*
X153937501Y-105012944D01*
X154027192Y-104947779D01*
X154097246Y-104896884D01*
X154097248Y-104896881D01*
X154097252Y-104896879D01*
X154236879Y-104757252D01*
X154236881Y-104757248D01*
X154236884Y-104757246D01*
X154352941Y-104597505D01*
X154352942Y-104597504D01*
X154352944Y-104597501D01*
X154439517Y-104427593D01*
X154487490Y-104376800D01*
X154555311Y-104360005D01*
X154621446Y-104382542D01*
X154660482Y-104427593D01*
X154697383Y-104500013D01*
X154747058Y-104597505D01*
X154863115Y-104757246D01*
X155002753Y-104896884D01*
X155130521Y-104989711D01*
X155162499Y-105012944D01*
X155338439Y-105102591D01*
X155463637Y-105143270D01*
X155526236Y-105163610D01*
X155721264Y-105194500D01*
X155721269Y-105194500D01*
X155918736Y-105194500D01*
X156113763Y-105163610D01*
X156301561Y-105102591D01*
X156477501Y-105012944D01*
X156567192Y-104947779D01*
X156637246Y-104896884D01*
X156637248Y-104896881D01*
X156637252Y-104896879D01*
X156776879Y-104757252D01*
X156776881Y-104757248D01*
X156776884Y-104757246D01*
X156892941Y-104597505D01*
X156892942Y-104597504D01*
X156892944Y-104597501D01*
X156979517Y-104427593D01*
X157027490Y-104376800D01*
X157095311Y-104360005D01*
X157161446Y-104382542D01*
X157200482Y-104427593D01*
X157237383Y-104500013D01*
X157287058Y-104597505D01*
X157403115Y-104757246D01*
X157542753Y-104896884D01*
X157670521Y-104989711D01*
X157702499Y-105012944D01*
X157878439Y-105102591D01*
X158003637Y-105143270D01*
X158066236Y-105163610D01*
X158261264Y-105194500D01*
X158261269Y-105194500D01*
X158458736Y-105194500D01*
X158653763Y-105163610D01*
X158841561Y-105102591D01*
X159017501Y-105012944D01*
X159107192Y-104947779D01*
X159177246Y-104896884D01*
X159177248Y-104896881D01*
X159177252Y-104896879D01*
X159316879Y-104757252D01*
X159316881Y-104757248D01*
X159316884Y-104757246D01*
X159432941Y-104597505D01*
X159432942Y-104597504D01*
X159432944Y-104597501D01*
X159519517Y-104427593D01*
X159567490Y-104376800D01*
X159635311Y-104360005D01*
X159701446Y-104382542D01*
X159740482Y-104427593D01*
X159777383Y-104500013D01*
X159827058Y-104597505D01*
X159943115Y-104757246D01*
X160082753Y-104896884D01*
X160210521Y-104989711D01*
X160242499Y-105012944D01*
X160418439Y-105102591D01*
X160543637Y-105143270D01*
X160606236Y-105163610D01*
X160801264Y-105194500D01*
X160801269Y-105194500D01*
X160998736Y-105194500D01*
X161193763Y-105163610D01*
X161381561Y-105102591D01*
X161557501Y-105012944D01*
X161647192Y-104947779D01*
X161717246Y-104896884D01*
X161717248Y-104896881D01*
X161717252Y-104896879D01*
X161856879Y-104757252D01*
X161856881Y-104757248D01*
X161856884Y-104757246D01*
X161972941Y-104597505D01*
X161972942Y-104597504D01*
X161972944Y-104597501D01*
X162059517Y-104427593D01*
X162107490Y-104376800D01*
X162175311Y-104360005D01*
X162241446Y-104382542D01*
X162280482Y-104427593D01*
X162317383Y-104500013D01*
X162367058Y-104597505D01*
X162483115Y-104757246D01*
X162622753Y-104896884D01*
X162750521Y-104989711D01*
X162782499Y-105012944D01*
X162958439Y-105102591D01*
X163083637Y-105143270D01*
X163146236Y-105163610D01*
X163341264Y-105194500D01*
X163341269Y-105194500D01*
X163538736Y-105194500D01*
X163733763Y-105163610D01*
X163921561Y-105102591D01*
X164097501Y-105012944D01*
X164187192Y-104947779D01*
X164257246Y-104896884D01*
X164257248Y-104896881D01*
X164257252Y-104896879D01*
X164396879Y-104757252D01*
X164396881Y-104757248D01*
X164396884Y-104757246D01*
X164473892Y-104651252D01*
X164512944Y-104597501D01*
X164602591Y-104421561D01*
X164663610Y-104233763D01*
X164694500Y-104038736D01*
X164694500Y-103841263D01*
X164663610Y-103646236D01*
X164619438Y-103510289D01*
X164602591Y-103458439D01*
X164512944Y-103282499D01*
X164477345Y-103233501D01*
X164396884Y-103122753D01*
X164257246Y-102983115D01*
X164097505Y-102867058D01*
X164091119Y-102863804D01*
X163927593Y-102780482D01*
X163876800Y-102732510D01*
X163860005Y-102664689D01*
X163882542Y-102598554D01*
X163927593Y-102559517D01*
X164097501Y-102472944D01*
X164117912Y-102458114D01*
X164257246Y-102356884D01*
X164257248Y-102356881D01*
X164257252Y-102356879D01*
X164396879Y-102217252D01*
X164396881Y-102217248D01*
X164396884Y-102217246D01*
X164447779Y-102147192D01*
X164512944Y-102057501D01*
X164602591Y-101881561D01*
X164663610Y-101693763D01*
X164681646Y-101579890D01*
X164694500Y-101498736D01*
X164694500Y-101301263D01*
X164663610Y-101106236D01*
X164636170Y-101021786D01*
X164602591Y-100918439D01*
X164512944Y-100742499D01*
X164505486Y-100732234D01*
X164396884Y-100582753D01*
X164257246Y-100443115D01*
X164097505Y-100327058D01*
X164035899Y-100295668D01*
X163927593Y-100240482D01*
X163876800Y-100192510D01*
X163860005Y-100124689D01*
X163882542Y-100058554D01*
X163927593Y-100019517D01*
X164097501Y-99932944D01*
X164232604Y-99834787D01*
X164257246Y-99816884D01*
X164257248Y-99816881D01*
X164257252Y-99816879D01*
X164396879Y-99677252D01*
X164396881Y-99677248D01*
X164396884Y-99677246D01*
X164453369Y-99599500D01*
X164512944Y-99517501D01*
X164602591Y-99341561D01*
X164663610Y-99153763D01*
X164668775Y-99121153D01*
X164694500Y-98958736D01*
X164694500Y-98761263D01*
X164663610Y-98566236D01*
X164638221Y-98488098D01*
X164602591Y-98378439D01*
X164512944Y-98202499D01*
X164461283Y-98131393D01*
X164396884Y-98042753D01*
X164257246Y-97903115D01*
X164097505Y-97787058D01*
X164091119Y-97783804D01*
X163927593Y-97700482D01*
X163876800Y-97652510D01*
X163860005Y-97584689D01*
X163882542Y-97518554D01*
X163927593Y-97479517D01*
X164097501Y-97392944D01*
X164183892Y-97330178D01*
X164257246Y-97276884D01*
X164257248Y-97276881D01*
X164257252Y-97276879D01*
X164396879Y-97137252D01*
X164396881Y-97137248D01*
X164396884Y-97137246D01*
X164447779Y-97067192D01*
X164512944Y-96977501D01*
X164602591Y-96801561D01*
X164663610Y-96613763D01*
X164681646Y-96499890D01*
X164694500Y-96418736D01*
X164694500Y-96221263D01*
X164663610Y-96026236D01*
X164613114Y-95870827D01*
X164602591Y-95838439D01*
X164512944Y-95662499D01*
X164488032Y-95628210D01*
X164396884Y-95502753D01*
X164257246Y-95363115D01*
X164097505Y-95247058D01*
X164047906Y-95221786D01*
X163927593Y-95160482D01*
X163876800Y-95112510D01*
X163860005Y-95044689D01*
X163882542Y-94978554D01*
X163927593Y-94939517D01*
X164097501Y-94852944D01*
X164124279Y-94833489D01*
X164257246Y-94736884D01*
X164257248Y-94736881D01*
X164257252Y-94736879D01*
X164396879Y-94597252D01*
X164396881Y-94597248D01*
X164396884Y-94597246D01*
X164452168Y-94521153D01*
X164512944Y-94437501D01*
X164602591Y-94261561D01*
X164663610Y-94073763D01*
X164663812Y-94072487D01*
X164694500Y-93878736D01*
X164694500Y-93681263D01*
X164663610Y-93486236D01*
X164612776Y-93329786D01*
X164602591Y-93298439D01*
X164512944Y-93122499D01*
X164493474Y-93095700D01*
X164396884Y-92962753D01*
X164257246Y-92823115D01*
X164097505Y-92707058D01*
X164091119Y-92703804D01*
X163927593Y-92620482D01*
X163876800Y-92572510D01*
X163860005Y-92504689D01*
X163882542Y-92438554D01*
X163927593Y-92399517D01*
X164097501Y-92312944D01*
X164169975Y-92260289D01*
X164257246Y-92196884D01*
X164257248Y-92196881D01*
X164257252Y-92196879D01*
X164396879Y-92057252D01*
X164396881Y-92057248D01*
X164396884Y-92057246D01*
X164467548Y-91959984D01*
X164512944Y-91897501D01*
X164602591Y-91721561D01*
X164663610Y-91533763D01*
X164666369Y-91516342D01*
X164694500Y-91338736D01*
X164694500Y-91141263D01*
X164663610Y-90946236D01*
X164638219Y-90868091D01*
X164602591Y-90758439D01*
X164512944Y-90582499D01*
X164497005Y-90560560D01*
X164396884Y-90422753D01*
X164257246Y-90283115D01*
X164097505Y-90167058D01*
X164057052Y-90146446D01*
X163927593Y-90080482D01*
X163876800Y-90032510D01*
X163860005Y-89964689D01*
X163882542Y-89898554D01*
X163927593Y-89859517D01*
X164097501Y-89772944D01*
X164210287Y-89691001D01*
X164257246Y-89656884D01*
X164257248Y-89656881D01*
X164257252Y-89656879D01*
X164396879Y-89517252D01*
X164396881Y-89517248D01*
X164396884Y-89517246D01*
X164447779Y-89447192D01*
X164512944Y-89357501D01*
X164602591Y-89181561D01*
X164663610Y-88993763D01*
X164681646Y-88879890D01*
X164694500Y-88798736D01*
X164694500Y-88601263D01*
X164663610Y-88406236D01*
X164643270Y-88343637D01*
X164602591Y-88218439D01*
X164512944Y-88042499D01*
X164471202Y-87985045D01*
X164396884Y-87882753D01*
X164257246Y-87743115D01*
X164097505Y-87627058D01*
X164091119Y-87623804D01*
X163927593Y-87540482D01*
X163876800Y-87492510D01*
X163860005Y-87424689D01*
X163882542Y-87358554D01*
X163927593Y-87319517D01*
X164037114Y-87263713D01*
X165624500Y-87263713D01*
X165624500Y-87476287D01*
X165628485Y-87501446D01*
X165648379Y-87627056D01*
X165657754Y-87686243D01*
X165721604Y-87882753D01*
X165723444Y-87888414D01*
X165819951Y-88077820D01*
X165944890Y-88249786D01*
X166095213Y-88400109D01*
X166267182Y-88525050D01*
X166275946Y-88529516D01*
X166326742Y-88577491D01*
X166343536Y-88645312D01*
X166320998Y-88711447D01*
X166275946Y-88750484D01*
X166267182Y-88754949D01*
X166095213Y-88879890D01*
X165944890Y-89030213D01*
X165819951Y-89202179D01*
X165723444Y-89391585D01*
X165657753Y-89593760D01*
X165647269Y-89659956D01*
X165624500Y-89803713D01*
X165624500Y-90016287D01*
X165627212Y-90033407D01*
X165656377Y-90217554D01*
X165657754Y-90226243D01*
X165721604Y-90422753D01*
X165723444Y-90428414D01*
X165819951Y-90617820D01*
X165944890Y-90789786D01*
X166095213Y-90940109D01*
X166267182Y-91065050D01*
X166275946Y-91069516D01*
X166326742Y-91117491D01*
X166343536Y-91185312D01*
X166320998Y-91251447D01*
X166275946Y-91290484D01*
X166267182Y-91294949D01*
X166095213Y-91419890D01*
X165944890Y-91570213D01*
X165819951Y-91742179D01*
X165723444Y-91931585D01*
X165657753Y-92133760D01*
X165629794Y-92310288D01*
X165624500Y-92343713D01*
X165624500Y-92556287D01*
X165628485Y-92581446D01*
X165648379Y-92707056D01*
X165657754Y-92766243D01*
X165721604Y-92962753D01*
X165723444Y-92968414D01*
X165819951Y-93157820D01*
X165944890Y-93329786D01*
X166095213Y-93480109D01*
X166267182Y-93605050D01*
X166275946Y-93609516D01*
X166326742Y-93657491D01*
X166343536Y-93725312D01*
X166320998Y-93791447D01*
X166275946Y-93830484D01*
X166267182Y-93834949D01*
X166095213Y-93959890D01*
X165944890Y-94110213D01*
X165819951Y-94282179D01*
X165723444Y-94471585D01*
X165657753Y-94673760D01*
X165632455Y-94833489D01*
X165624500Y-94883713D01*
X165624500Y-95096287D01*
X165628485Y-95121446D01*
X165648379Y-95247056D01*
X165657754Y-95306243D01*
X165721604Y-95502753D01*
X165723444Y-95508414D01*
X165819951Y-95697820D01*
X165944890Y-95869786D01*
X166095213Y-96020109D01*
X166267182Y-96145050D01*
X166275946Y-96149516D01*
X166326742Y-96197491D01*
X166343536Y-96265312D01*
X166320998Y-96331447D01*
X166275946Y-96370484D01*
X166267182Y-96374949D01*
X166095213Y-96499890D01*
X165944890Y-96650213D01*
X165819951Y-96822179D01*
X165723444Y-97011585D01*
X165657753Y-97213760D01*
X165639314Y-97330181D01*
X165624500Y-97423713D01*
X165624500Y-97636287D01*
X165628485Y-97661446D01*
X165648379Y-97787056D01*
X165657754Y-97846243D01*
X165721604Y-98042753D01*
X165723444Y-98048414D01*
X165819951Y-98237820D01*
X165944890Y-98409786D01*
X166095213Y-98560109D01*
X166267182Y-98685050D01*
X166275946Y-98689516D01*
X166326742Y-98737491D01*
X166343536Y-98805312D01*
X166320998Y-98871447D01*
X166275946Y-98910484D01*
X166267182Y-98914949D01*
X166095213Y-99039890D01*
X165944890Y-99190213D01*
X165819951Y-99362179D01*
X165723444Y-99551585D01*
X165723443Y-99551587D01*
X165723443Y-99551588D01*
X165690598Y-99652672D01*
X165657753Y-99753760D01*
X165632946Y-99910385D01*
X165624500Y-99963713D01*
X165624500Y-100176287D01*
X165628485Y-100201446D01*
X165654462Y-100365463D01*
X165657754Y-100386243D01*
X165721604Y-100582753D01*
X165723444Y-100588414D01*
X165819951Y-100777820D01*
X165944890Y-100949786D01*
X166095213Y-101100109D01*
X166267182Y-101225050D01*
X166275946Y-101229516D01*
X166326742Y-101277491D01*
X166343536Y-101345312D01*
X166320998Y-101411447D01*
X166275946Y-101450484D01*
X166267182Y-101454949D01*
X166095213Y-101579890D01*
X165944890Y-101730213D01*
X165819951Y-101902179D01*
X165723444Y-102091585D01*
X165657753Y-102293760D01*
X165644377Y-102378213D01*
X165624500Y-102503713D01*
X165624500Y-102716287D01*
X165632455Y-102766510D01*
X165657753Y-102926239D01*
X165657753Y-102926241D01*
X165657754Y-102926243D01*
X165721604Y-103122753D01*
X165723444Y-103128414D01*
X165819951Y-103317820D01*
X165944890Y-103489786D01*
X166095213Y-103640109D01*
X166267179Y-103765048D01*
X166267181Y-103765049D01*
X166267184Y-103765051D01*
X166456588Y-103861557D01*
X166658757Y-103927246D01*
X166868713Y-103960500D01*
X166868714Y-103960500D01*
X167081286Y-103960500D01*
X167081287Y-103960500D01*
X167291243Y-103927246D01*
X167493412Y-103861557D01*
X167682816Y-103765051D01*
X167759422Y-103709394D01*
X167854786Y-103640109D01*
X167854788Y-103640106D01*
X167854792Y-103640104D01*
X168005104Y-103489792D01*
X168005106Y-103489788D01*
X168005109Y-103489786D01*
X168130048Y-103317820D01*
X168130047Y-103317820D01*
X168130051Y-103317816D01*
X168226557Y-103128412D01*
X168292246Y-102926243D01*
X168293052Y-102921153D01*
X177699500Y-102921153D01*
X177699500Y-103078846D01*
X177730261Y-103233489D01*
X177730264Y-103233501D01*
X177790602Y-103379172D01*
X177790609Y-103379185D01*
X177878210Y-103510288D01*
X177878213Y-103510292D01*
X177989707Y-103621786D01*
X177989711Y-103621789D01*
X178120814Y-103709390D01*
X178120827Y-103709397D01*
X178255190Y-103765051D01*
X178266503Y-103769737D01*
X178421153Y-103800499D01*
X178421156Y-103800500D01*
X178421158Y-103800500D01*
X178578844Y-103800500D01*
X178578845Y-103800499D01*
X178733497Y-103769737D01*
X178879179Y-103709394D01*
X179010289Y-103621789D01*
X179121789Y-103510289D01*
X179209394Y-103379179D01*
X179269737Y-103233497D01*
X179300500Y-103078842D01*
X179300500Y-102921158D01*
X179300500Y-102921155D01*
X179300499Y-102921153D01*
X179269738Y-102766510D01*
X179269737Y-102766503D01*
X179236185Y-102685500D01*
X179209397Y-102620827D01*
X179209390Y-102620814D01*
X179121789Y-102489711D01*
X179121786Y-102489707D01*
X179010292Y-102378213D01*
X179010288Y-102378210D01*
X178879185Y-102290609D01*
X178879172Y-102290602D01*
X178733501Y-102230264D01*
X178733489Y-102230261D01*
X178578845Y-102199500D01*
X178578842Y-102199500D01*
X178421158Y-102199500D01*
X178421155Y-102199500D01*
X178266510Y-102230261D01*
X178266498Y-102230264D01*
X178120827Y-102290602D01*
X178120814Y-102290609D01*
X177989711Y-102378210D01*
X177989707Y-102378213D01*
X177878213Y-102489707D01*
X177878210Y-102489711D01*
X177790609Y-102620814D01*
X177790602Y-102620827D01*
X177730264Y-102766498D01*
X177730261Y-102766510D01*
X177699500Y-102921153D01*
X168293052Y-102921153D01*
X168325500Y-102716287D01*
X168325500Y-102503713D01*
X168292246Y-102293757D01*
X168226557Y-102091588D01*
X168130051Y-101902184D01*
X168130049Y-101902181D01*
X168130048Y-101902179D01*
X168005109Y-101730213D01*
X167854786Y-101579890D01*
X167682820Y-101454951D01*
X167682115Y-101454591D01*
X167674054Y-101450485D01*
X167623259Y-101402512D01*
X167606463Y-101334692D01*
X167628999Y-101268556D01*
X167674054Y-101229515D01*
X167682816Y-101225051D01*
X167716609Y-101200499D01*
X167854786Y-101100109D01*
X167854788Y-101100106D01*
X167854792Y-101100104D01*
X168005104Y-100949792D01*
X168005106Y-100949788D01*
X168005109Y-100949786D01*
X168130048Y-100777820D01*
X168130047Y-100777820D01*
X168130051Y-100777816D01*
X168226557Y-100588412D01*
X168292246Y-100386243D01*
X168302555Y-100321153D01*
X184299500Y-100321153D01*
X184299500Y-100478846D01*
X184330261Y-100633489D01*
X184330264Y-100633501D01*
X184390602Y-100779172D01*
X184390609Y-100779185D01*
X184478210Y-100910288D01*
X184478213Y-100910292D01*
X184589707Y-101021786D01*
X184589711Y-101021789D01*
X184720814Y-101109390D01*
X184720827Y-101109397D01*
X184827711Y-101153669D01*
X184866503Y-101169737D01*
X185021153Y-101200499D01*
X185021156Y-101200500D01*
X185021158Y-101200500D01*
X185178844Y-101200500D01*
X185178845Y-101200499D01*
X185333497Y-101169737D01*
X185479179Y-101109394D01*
X185610289Y-101021789D01*
X185721789Y-100910289D01*
X185809394Y-100779179D01*
X185869737Y-100633497D01*
X185900500Y-100478842D01*
X185900500Y-100321158D01*
X185900500Y-100321155D01*
X185900499Y-100321153D01*
X185883460Y-100235494D01*
X185869737Y-100166503D01*
X185843289Y-100102651D01*
X185809397Y-100020827D01*
X185809390Y-100020814D01*
X185721789Y-99889711D01*
X185721786Y-99889707D01*
X185610292Y-99778213D01*
X185610288Y-99778210D01*
X185479185Y-99690609D01*
X185479172Y-99690602D01*
X185333501Y-99630264D01*
X185333489Y-99630261D01*
X185178845Y-99599500D01*
X185178842Y-99599500D01*
X185021158Y-99599500D01*
X185021155Y-99599500D01*
X184866510Y-99630261D01*
X184866498Y-99630264D01*
X184720827Y-99690602D01*
X184720814Y-99690609D01*
X184589711Y-99778210D01*
X184589707Y-99778213D01*
X184478213Y-99889707D01*
X184478210Y-99889711D01*
X184390609Y-100020814D01*
X184390602Y-100020827D01*
X184330264Y-100166498D01*
X184330261Y-100166510D01*
X184299500Y-100321153D01*
X168302555Y-100321153D01*
X168325500Y-100176287D01*
X168325500Y-99963713D01*
X168292246Y-99753757D01*
X168226557Y-99551588D01*
X168130051Y-99362184D01*
X168130049Y-99362181D01*
X168130048Y-99362179D01*
X168005109Y-99190213D01*
X167854786Y-99039890D01*
X167682820Y-98914951D01*
X167682115Y-98914591D01*
X167674054Y-98910485D01*
X167623259Y-98862512D01*
X167606463Y-98794692D01*
X167628999Y-98728556D01*
X167674054Y-98689515D01*
X167682816Y-98685051D01*
X167704789Y-98669086D01*
X167854786Y-98560109D01*
X167854788Y-98560106D01*
X167854792Y-98560104D01*
X167993743Y-98421153D01*
X170699500Y-98421153D01*
X170699500Y-98578846D01*
X170730261Y-98733489D01*
X170730264Y-98733501D01*
X170790602Y-98879172D01*
X170790609Y-98879185D01*
X170878210Y-99010288D01*
X170878213Y-99010292D01*
X170989707Y-99121786D01*
X170989711Y-99121789D01*
X171120814Y-99209390D01*
X171120827Y-99209397D01*
X171266498Y-99269735D01*
X171266503Y-99269737D01*
X171421153Y-99300499D01*
X171421156Y-99300500D01*
X171421158Y-99300500D01*
X171578844Y-99300500D01*
X171578845Y-99300499D01*
X171733497Y-99269737D01*
X171879179Y-99209394D01*
X172010289Y-99121789D01*
X172121789Y-99010289D01*
X172209394Y-98879179D01*
X172210438Y-98876659D01*
X172211337Y-98875543D01*
X172212264Y-98873809D01*
X172212592Y-98873984D01*
X172254277Y-98822255D01*
X172320571Y-98800188D01*
X172388271Y-98817466D01*
X172435882Y-98868602D01*
X172439562Y-98876659D01*
X172440604Y-98879175D01*
X172440609Y-98879185D01*
X172528210Y-99010288D01*
X172528213Y-99010292D01*
X172639707Y-99121786D01*
X172639711Y-99121789D01*
X172770814Y-99209390D01*
X172770827Y-99209397D01*
X172916498Y-99269735D01*
X172916503Y-99269737D01*
X173071153Y-99300499D01*
X173071156Y-99300500D01*
X173071158Y-99300500D01*
X173228844Y-99300500D01*
X173228845Y-99300499D01*
X173383497Y-99269737D01*
X173529179Y-99209394D01*
X173660289Y-99121789D01*
X173660925Y-99121153D01*
X177699500Y-99121153D01*
X177699500Y-99278846D01*
X177730261Y-99433489D01*
X177730264Y-99433501D01*
X177790602Y-99579172D01*
X177790609Y-99579185D01*
X177878210Y-99710288D01*
X177878213Y-99710292D01*
X177989707Y-99821786D01*
X177989711Y-99821789D01*
X178120814Y-99909390D01*
X178120827Y-99909397D01*
X178266498Y-99969735D01*
X178266503Y-99969737D01*
X178421153Y-100000499D01*
X178421156Y-100000500D01*
X178421158Y-100000500D01*
X178578844Y-100000500D01*
X178578845Y-100000499D01*
X178733497Y-99969737D01*
X178846166Y-99923067D01*
X178879172Y-99909397D01*
X178879172Y-99909396D01*
X178879179Y-99909394D01*
X179010289Y-99821789D01*
X179121789Y-99710289D01*
X179209394Y-99579179D01*
X179269737Y-99433497D01*
X179300500Y-99278842D01*
X179300500Y-99121158D01*
X179300500Y-99121155D01*
X179300499Y-99121153D01*
X179286176Y-99049142D01*
X179282575Y-99031038D01*
X182627500Y-99031038D01*
X182627500Y-99188731D01*
X182658261Y-99343374D01*
X182658264Y-99343386D01*
X182718602Y-99489057D01*
X182718609Y-99489070D01*
X182806210Y-99620173D01*
X182806213Y-99620177D01*
X182917707Y-99731671D01*
X182917711Y-99731674D01*
X183048814Y-99819275D01*
X183048827Y-99819282D01*
X183194498Y-99879620D01*
X183194503Y-99879622D01*
X183344156Y-99909390D01*
X183349153Y-99910384D01*
X183349156Y-99910385D01*
X183349158Y-99910385D01*
X183506844Y-99910385D01*
X183506845Y-99910384D01*
X183661497Y-99879622D01*
X183807179Y-99819279D01*
X183938289Y-99731674D01*
X184049789Y-99620174D01*
X184137394Y-99489064D01*
X184197737Y-99343382D01*
X184228500Y-99188727D01*
X184228500Y-99031043D01*
X184228500Y-99031040D01*
X184228499Y-99031038D01*
X184224372Y-99010289D01*
X184197737Y-98876388D01*
X184194512Y-98868602D01*
X184137397Y-98730712D01*
X184137390Y-98730699D01*
X184049789Y-98599596D01*
X184049786Y-98599592D01*
X183938292Y-98488098D01*
X183938288Y-98488095D01*
X183807185Y-98400494D01*
X183807172Y-98400487D01*
X183661501Y-98340149D01*
X183661489Y-98340146D01*
X183506845Y-98309385D01*
X183506842Y-98309385D01*
X183349158Y-98309385D01*
X183349155Y-98309385D01*
X183194510Y-98340146D01*
X183194498Y-98340149D01*
X183048827Y-98400487D01*
X183048814Y-98400494D01*
X182917711Y-98488095D01*
X182917707Y-98488098D01*
X182806213Y-98599592D01*
X182806210Y-98599596D01*
X182718609Y-98730699D01*
X182718602Y-98730712D01*
X182658264Y-98876383D01*
X182658261Y-98876395D01*
X182627500Y-99031038D01*
X179282575Y-99031038D01*
X179269738Y-98966508D01*
X179269737Y-98966507D01*
X179269737Y-98966503D01*
X179246534Y-98910486D01*
X179209397Y-98820827D01*
X179209390Y-98820814D01*
X179121789Y-98689711D01*
X179121786Y-98689707D01*
X179010292Y-98578213D01*
X179010288Y-98578210D01*
X178879185Y-98490609D01*
X178879172Y-98490602D01*
X178733501Y-98430264D01*
X178733489Y-98430261D01*
X178578845Y-98399500D01*
X178578842Y-98399500D01*
X178421158Y-98399500D01*
X178421155Y-98399500D01*
X178266510Y-98430261D01*
X178266498Y-98430264D01*
X178120827Y-98490602D01*
X178120814Y-98490609D01*
X177989711Y-98578210D01*
X177989707Y-98578213D01*
X177878213Y-98689707D01*
X177878210Y-98689711D01*
X177790609Y-98820814D01*
X177790602Y-98820827D01*
X177730264Y-98966498D01*
X177730261Y-98966510D01*
X177699500Y-99121153D01*
X173660925Y-99121153D01*
X173754694Y-99027385D01*
X173771786Y-99010292D01*
X173771789Y-99010289D01*
X173859394Y-98879179D01*
X173919737Y-98733497D01*
X173950500Y-98578842D01*
X173950500Y-98421158D01*
X173950500Y-98421155D01*
X173950499Y-98421153D01*
X173942003Y-98378441D01*
X173919737Y-98266503D01*
X173916001Y-98257483D01*
X173859397Y-98120827D01*
X173859390Y-98120814D01*
X173771789Y-97989711D01*
X173771786Y-97989707D01*
X173660292Y-97878213D01*
X173660288Y-97878210D01*
X173529185Y-97790609D01*
X173529172Y-97790602D01*
X173383501Y-97730264D01*
X173383489Y-97730261D01*
X173228845Y-97699500D01*
X173228842Y-97699500D01*
X173071158Y-97699500D01*
X173071155Y-97699500D01*
X172916510Y-97730261D01*
X172916498Y-97730264D01*
X172770827Y-97790602D01*
X172770814Y-97790609D01*
X172639711Y-97878210D01*
X172639707Y-97878213D01*
X172528213Y-97989707D01*
X172528210Y-97989711D01*
X172440609Y-98120814D01*
X172440603Y-98120826D01*
X172439560Y-98123345D01*
X172438660Y-98124460D01*
X172437736Y-98126191D01*
X172437407Y-98126015D01*
X172395718Y-98177747D01*
X172329424Y-98199811D01*
X172261725Y-98182531D01*
X172214115Y-98131393D01*
X172210440Y-98123345D01*
X172209396Y-98120826D01*
X172209390Y-98120814D01*
X172121789Y-97989711D01*
X172121786Y-97989707D01*
X172010292Y-97878213D01*
X172010288Y-97878210D01*
X171879185Y-97790609D01*
X171879172Y-97790602D01*
X171733501Y-97730264D01*
X171733489Y-97730261D01*
X171578845Y-97699500D01*
X171578842Y-97699500D01*
X171421158Y-97699500D01*
X171421155Y-97699500D01*
X171266510Y-97730261D01*
X171266498Y-97730264D01*
X171120827Y-97790602D01*
X171120814Y-97790609D01*
X170989711Y-97878210D01*
X170989707Y-97878213D01*
X170878213Y-97989707D01*
X170878210Y-97989711D01*
X170790609Y-98120814D01*
X170790602Y-98120827D01*
X170730264Y-98266498D01*
X170730261Y-98266510D01*
X170699500Y-98421153D01*
X167993743Y-98421153D01*
X168005104Y-98409792D01*
X168056284Y-98339349D01*
X168081239Y-98305000D01*
X168130051Y-98237816D01*
X168226557Y-98048412D01*
X168292246Y-97846243D01*
X168325500Y-97636287D01*
X168325500Y-97423713D01*
X168292246Y-97213757D01*
X168226557Y-97011588D01*
X168130051Y-96822184D01*
X168130049Y-96822181D01*
X168130048Y-96822179D01*
X168005109Y-96650213D01*
X167854786Y-96499890D01*
X167682820Y-96374951D01*
X167682115Y-96374591D01*
X167674054Y-96370485D01*
X167623259Y-96322512D01*
X167606463Y-96254692D01*
X167628999Y-96188556D01*
X167674054Y-96149515D01*
X167682816Y-96145051D01*
X167724157Y-96115015D01*
X167854786Y-96020109D01*
X167854788Y-96020106D01*
X167854792Y-96020104D01*
X168005104Y-95869792D01*
X168005106Y-95869788D01*
X168005109Y-95869786D01*
X168130048Y-95697820D01*
X168130047Y-95697820D01*
X168130051Y-95697816D01*
X168226557Y-95508412D01*
X168292246Y-95306243D01*
X168325500Y-95096287D01*
X168325500Y-94883713D01*
X168292246Y-94673757D01*
X168242662Y-94521153D01*
X185399500Y-94521153D01*
X185399500Y-94678846D01*
X185430261Y-94833489D01*
X185430264Y-94833501D01*
X185490602Y-94979172D01*
X185490609Y-94979185D01*
X185578209Y-95110287D01*
X185578213Y-95110292D01*
X185689707Y-95221786D01*
X185689711Y-95221789D01*
X185820814Y-95309390D01*
X185820827Y-95309397D01*
X185950516Y-95363115D01*
X185966503Y-95369737D01*
X186121153Y-95400499D01*
X186121156Y-95400500D01*
X186121158Y-95400500D01*
X186278844Y-95400500D01*
X186278845Y-95400499D01*
X186433497Y-95369737D01*
X186579179Y-95309394D01*
X186710289Y-95221789D01*
X186821789Y-95110289D01*
X186821791Y-95110287D01*
X186909390Y-94979185D01*
X186909390Y-94979184D01*
X186909394Y-94979179D01*
X186969737Y-94833497D01*
X187000500Y-94678842D01*
X187000500Y-94521158D01*
X187000500Y-94521155D01*
X187000499Y-94521153D01*
X186969738Y-94366510D01*
X186969737Y-94366503D01*
X186968151Y-94362673D01*
X186909397Y-94220827D01*
X186909390Y-94220814D01*
X186821789Y-94089711D01*
X186821786Y-94089707D01*
X186710292Y-93978213D01*
X186710288Y-93978210D01*
X186579185Y-93890609D01*
X186579172Y-93890602D01*
X186433501Y-93830264D01*
X186433489Y-93830261D01*
X186278845Y-93799500D01*
X186278842Y-93799500D01*
X186121158Y-93799500D01*
X186121155Y-93799500D01*
X185966510Y-93830261D01*
X185966498Y-93830264D01*
X185820827Y-93890602D01*
X185820814Y-93890609D01*
X185689711Y-93978210D01*
X185689707Y-93978213D01*
X185578213Y-94089707D01*
X185578210Y-94089711D01*
X185490609Y-94220814D01*
X185490602Y-94220827D01*
X185430264Y-94366498D01*
X185430261Y-94366510D01*
X185399500Y-94521153D01*
X168242662Y-94521153D01*
X168226557Y-94471588D01*
X168130051Y-94282184D01*
X168130049Y-94282181D01*
X168130048Y-94282179D01*
X168005109Y-94110213D01*
X167854786Y-93959890D01*
X167682820Y-93834951D01*
X167682115Y-93834591D01*
X167674054Y-93830485D01*
X167623259Y-93782512D01*
X167606463Y-93714692D01*
X167628999Y-93648556D01*
X167674054Y-93609515D01*
X167682816Y-93605051D01*
X167846351Y-93486237D01*
X167854786Y-93480109D01*
X167854788Y-93480106D01*
X167854792Y-93480104D01*
X168005104Y-93329792D01*
X168005106Y-93329788D01*
X168005109Y-93329786D01*
X168130048Y-93157820D01*
X168130047Y-93157820D01*
X168130051Y-93157816D01*
X168226557Y-92968412D01*
X168292246Y-92766243D01*
X168325500Y-92556287D01*
X168325500Y-92343713D01*
X168292246Y-92133757D01*
X168226557Y-91931588D01*
X168130051Y-91742184D01*
X168130049Y-91742181D01*
X168130048Y-91742179D01*
X168005109Y-91570213D01*
X167854786Y-91419890D01*
X167770499Y-91358653D01*
X176799500Y-91358653D01*
X176799500Y-91516346D01*
X176830261Y-91670989D01*
X176830264Y-91671001D01*
X176890602Y-91816672D01*
X176890609Y-91816685D01*
X176978210Y-91947788D01*
X176978213Y-91947792D01*
X177089707Y-92059286D01*
X177089711Y-92059289D01*
X177220814Y-92146890D01*
X177220827Y-92146897D01*
X177341496Y-92196879D01*
X177366503Y-92207237D01*
X177521153Y-92237999D01*
X177521156Y-92238000D01*
X177521158Y-92238000D01*
X177678844Y-92238000D01*
X177678845Y-92237999D01*
X177833497Y-92207237D01*
X177979179Y-92146894D01*
X178110289Y-92059289D01*
X178221789Y-91947789D01*
X178309394Y-91816679D01*
X178348962Y-91721153D01*
X179399500Y-91721153D01*
X179399500Y-91878846D01*
X179430261Y-92033489D01*
X179430264Y-92033501D01*
X179490602Y-92179172D01*
X179490609Y-92179185D01*
X179578210Y-92310288D01*
X179578213Y-92310292D01*
X179689707Y-92421786D01*
X179689711Y-92421789D01*
X179820814Y-92509390D01*
X179820827Y-92509397D01*
X179934280Y-92556390D01*
X179966503Y-92569737D01*
X180121153Y-92600499D01*
X180121156Y-92600500D01*
X180121158Y-92600500D01*
X180278844Y-92600500D01*
X180278845Y-92600499D01*
X180433497Y-92569737D01*
X180579179Y-92509394D01*
X180710289Y-92421789D01*
X180821789Y-92310289D01*
X180909394Y-92179179D01*
X180969737Y-92033497D01*
X181000500Y-91878842D01*
X181000500Y-91721158D01*
X181000500Y-91721155D01*
X181000499Y-91721153D01*
X182999500Y-91721153D01*
X182999500Y-91878846D01*
X183030261Y-92033489D01*
X183030264Y-92033501D01*
X183090602Y-92179172D01*
X183090609Y-92179185D01*
X183178210Y-92310288D01*
X183178213Y-92310292D01*
X183289707Y-92421786D01*
X183289711Y-92421789D01*
X183420814Y-92509390D01*
X183420827Y-92509397D01*
X183534280Y-92556390D01*
X183566503Y-92569737D01*
X183721153Y-92600499D01*
X183721156Y-92600500D01*
X183721158Y-92600500D01*
X183878844Y-92600500D01*
X183878845Y-92600499D01*
X184033497Y-92569737D01*
X184179179Y-92509394D01*
X184310289Y-92421789D01*
X184421789Y-92310289D01*
X184509394Y-92179179D01*
X184569737Y-92033497D01*
X184600500Y-91878842D01*
X184600500Y-91721158D01*
X184600500Y-91721155D01*
X184600499Y-91721153D01*
X184585063Y-91643550D01*
X184569737Y-91566503D01*
X184556176Y-91533763D01*
X184509397Y-91420827D01*
X184509390Y-91420814D01*
X184421789Y-91289711D01*
X184421786Y-91289707D01*
X184310292Y-91178213D01*
X184310288Y-91178210D01*
X184179185Y-91090609D01*
X184179172Y-91090602D01*
X184033501Y-91030264D01*
X184033489Y-91030261D01*
X183878845Y-90999500D01*
X183878842Y-90999500D01*
X183721158Y-90999500D01*
X183721155Y-90999500D01*
X183566510Y-91030261D01*
X183566498Y-91030264D01*
X183420827Y-91090602D01*
X183420814Y-91090609D01*
X183289711Y-91178210D01*
X183289707Y-91178213D01*
X183178213Y-91289707D01*
X183178210Y-91289711D01*
X183090609Y-91420814D01*
X183090602Y-91420827D01*
X183030264Y-91566498D01*
X183030261Y-91566510D01*
X182999500Y-91721153D01*
X181000499Y-91721153D01*
X180985063Y-91643550D01*
X180969737Y-91566503D01*
X180956176Y-91533763D01*
X180909397Y-91420827D01*
X180909390Y-91420814D01*
X180821789Y-91289711D01*
X180821786Y-91289707D01*
X180710292Y-91178213D01*
X180710288Y-91178210D01*
X180579185Y-91090609D01*
X180579172Y-91090602D01*
X180433501Y-91030264D01*
X180433489Y-91030261D01*
X180278845Y-90999500D01*
X180278842Y-90999500D01*
X180121158Y-90999500D01*
X180121155Y-90999500D01*
X179966510Y-91030261D01*
X179966498Y-91030264D01*
X179820827Y-91090602D01*
X179820814Y-91090609D01*
X179689711Y-91178210D01*
X179689707Y-91178213D01*
X179578213Y-91289707D01*
X179578210Y-91289711D01*
X179490609Y-91420814D01*
X179490602Y-91420827D01*
X179430264Y-91566498D01*
X179430261Y-91566510D01*
X179399500Y-91721153D01*
X178348962Y-91721153D01*
X178369737Y-91670997D01*
X178400500Y-91516342D01*
X178400500Y-91358658D01*
X178400500Y-91358655D01*
X178400499Y-91358653D01*
X178387827Y-91294949D01*
X178369737Y-91204003D01*
X178353758Y-91165425D01*
X178309397Y-91058327D01*
X178309390Y-91058314D01*
X178221789Y-90927211D01*
X178221786Y-90927207D01*
X178110292Y-90815713D01*
X178110288Y-90815710D01*
X177979185Y-90728109D01*
X177979172Y-90728102D01*
X177833501Y-90667764D01*
X177833489Y-90667761D01*
X177678845Y-90637000D01*
X177678842Y-90637000D01*
X177521158Y-90637000D01*
X177521155Y-90637000D01*
X177366510Y-90667761D01*
X177366498Y-90667764D01*
X177220827Y-90728102D01*
X177220814Y-90728109D01*
X177089711Y-90815710D01*
X177089707Y-90815713D01*
X176978213Y-90927207D01*
X176978210Y-90927211D01*
X176890609Y-91058314D01*
X176890602Y-91058327D01*
X176830264Y-91203998D01*
X176830261Y-91204010D01*
X176799500Y-91358653D01*
X167770499Y-91358653D01*
X167682820Y-91294951D01*
X167682115Y-91294591D01*
X167674054Y-91290485D01*
X167623259Y-91242512D01*
X167606463Y-91174692D01*
X167628999Y-91108556D01*
X167674054Y-91069515D01*
X167682816Y-91065051D01*
X167773040Y-90999500D01*
X167854786Y-90940109D01*
X167854788Y-90940106D01*
X167854792Y-90940104D01*
X168005104Y-90789792D01*
X168005106Y-90789788D01*
X168005109Y-90789786D01*
X168130048Y-90617820D01*
X168130047Y-90617820D01*
X168130051Y-90617816D01*
X168226557Y-90428412D01*
X168292246Y-90226243D01*
X168325500Y-90016287D01*
X168325500Y-89803713D01*
X168292246Y-89593757D01*
X168226557Y-89391588D01*
X168130051Y-89202184D01*
X168130049Y-89202181D01*
X168130048Y-89202179D01*
X168005109Y-89030213D01*
X167854786Y-88879890D01*
X167682820Y-88754951D01*
X167682115Y-88754591D01*
X167674054Y-88750485D01*
X167623259Y-88702512D01*
X167606463Y-88634692D01*
X167628999Y-88568556D01*
X167674054Y-88529515D01*
X167682816Y-88525051D01*
X167704789Y-88509086D01*
X167854786Y-88400109D01*
X167854788Y-88400106D01*
X167854792Y-88400104D01*
X168005104Y-88249792D01*
X168005106Y-88249788D01*
X168005109Y-88249786D01*
X168130048Y-88077820D01*
X168130047Y-88077820D01*
X168130051Y-88077816D01*
X168226557Y-87888412D01*
X168292246Y-87686243D01*
X168325500Y-87476287D01*
X168325500Y-87263713D01*
X168292246Y-87053757D01*
X168226557Y-86851588D01*
X168130051Y-86662184D01*
X168130049Y-86662181D01*
X168130048Y-86662179D01*
X168005109Y-86490213D01*
X167891181Y-86376285D01*
X167857696Y-86314962D01*
X167862680Y-86245270D01*
X167904552Y-86189337D01*
X167935529Y-86172422D01*
X168067086Y-86123354D01*
X168067093Y-86123350D01*
X168182187Y-86037190D01*
X168182190Y-86037187D01*
X168268350Y-85922093D01*
X168268354Y-85922086D01*
X168318596Y-85787379D01*
X168318598Y-85787372D01*
X168324999Y-85727844D01*
X168325000Y-85727827D01*
X168325000Y-85080000D01*
X167408012Y-85080000D01*
X167440925Y-85022993D01*
X167475000Y-84895826D01*
X167475000Y-84764174D01*
X167440925Y-84637007D01*
X167408012Y-84580000D01*
X168325000Y-84580000D01*
X168325000Y-83932172D01*
X168324999Y-83932155D01*
X168318598Y-83872627D01*
X168318596Y-83872620D01*
X168268354Y-83737913D01*
X168268350Y-83737906D01*
X168182190Y-83622812D01*
X168182187Y-83622809D01*
X168067093Y-83536649D01*
X168067086Y-83536645D01*
X167932379Y-83486403D01*
X167932372Y-83486401D01*
X167872844Y-83480000D01*
X167225000Y-83480000D01*
X167225000Y-84396988D01*
X167167993Y-84364075D01*
X167040826Y-84330000D01*
X166909174Y-84330000D01*
X166782007Y-84364075D01*
X166725000Y-84396988D01*
X166725000Y-83480000D01*
X166077155Y-83480000D01*
X166017627Y-83486401D01*
X166017620Y-83486403D01*
X165882913Y-83536645D01*
X165882906Y-83536649D01*
X165767812Y-83622809D01*
X165767809Y-83622812D01*
X165681649Y-83737906D01*
X165681645Y-83737913D01*
X165631403Y-83872620D01*
X165631401Y-83872627D01*
X165625000Y-83932155D01*
X165625000Y-84580000D01*
X166541988Y-84580000D01*
X166509075Y-84637007D01*
X166475000Y-84764174D01*
X166475000Y-84895826D01*
X166509075Y-85022993D01*
X166541988Y-85080000D01*
X165625000Y-85080000D01*
X165625000Y-85727844D01*
X165631401Y-85787372D01*
X165631403Y-85787379D01*
X165681645Y-85922086D01*
X165681649Y-85922093D01*
X165767809Y-86037187D01*
X165767812Y-86037190D01*
X165882906Y-86123350D01*
X165882913Y-86123354D01*
X166014470Y-86172422D01*
X166070404Y-86214293D01*
X166094821Y-86279758D01*
X166079969Y-86348031D01*
X166058819Y-86376285D01*
X165944889Y-86490215D01*
X165819951Y-86662179D01*
X165723444Y-86851585D01*
X165657753Y-87053760D01*
X165629374Y-87232941D01*
X165624500Y-87263713D01*
X164037114Y-87263713D01*
X164097501Y-87232944D01*
X164199935Y-87158522D01*
X164199937Y-87158521D01*
X164257245Y-87116884D01*
X164257243Y-87116884D01*
X164257252Y-87116879D01*
X164396879Y-86977252D01*
X164396881Y-86977248D01*
X164396884Y-86977246D01*
X164465738Y-86882475D01*
X164512944Y-86817501D01*
X164602591Y-86641561D01*
X164663610Y-86453763D01*
X164666527Y-86435345D01*
X164694500Y-86258736D01*
X164694500Y-86061263D01*
X164663610Y-85866236D01*
X164629059Y-85759901D01*
X164602591Y-85678439D01*
X164512944Y-85502499D01*
X164487159Y-85467009D01*
X164396884Y-85342753D01*
X164257252Y-85203121D01*
X164257249Y-85203119D01*
X164113687Y-85098816D01*
X164071023Y-85043488D01*
X164065044Y-84973875D01*
X164097649Y-84912079D01*
X164158488Y-84877722D01*
X164186573Y-84874499D01*
X164241872Y-84874499D01*
X164301483Y-84868091D01*
X164436331Y-84817796D01*
X164551546Y-84731546D01*
X164637796Y-84616331D01*
X164688091Y-84481483D01*
X164694500Y-84421873D01*
X164694499Y-83536649D01*
X164694499Y-82818129D01*
X164694498Y-82818123D01*
X164694497Y-82818116D01*
X164688091Y-82758517D01*
X164659630Y-82682210D01*
X164637797Y-82623671D01*
X164637793Y-82623664D01*
X164551547Y-82508455D01*
X164551544Y-82508452D01*
X164436335Y-82422206D01*
X164436328Y-82422202D01*
X164301482Y-82371908D01*
X164301483Y-82371908D01*
X164241883Y-82365501D01*
X164241881Y-82365500D01*
X164241873Y-82365500D01*
X164241864Y-82365500D01*
X162638129Y-82365500D01*
X162638123Y-82365501D01*
X162578516Y-82371908D01*
X162443671Y-82422202D01*
X162443664Y-82422206D01*
X162328455Y-82508452D01*
X162328452Y-82508455D01*
X162242206Y-82623664D01*
X162242202Y-82623671D01*
X162191908Y-82758517D01*
X162187153Y-82802748D01*
X162185501Y-82818123D01*
X162185500Y-82818135D01*
X162185500Y-84421870D01*
X162185501Y-84421876D01*
X162191908Y-84481483D01*
X162242202Y-84616328D01*
X162242206Y-84616335D01*
X162328452Y-84731544D01*
X162328455Y-84731547D01*
X162443664Y-84817793D01*
X162443671Y-84817797D01*
X162578517Y-84868091D01*
X162578516Y-84868091D01*
X162585444Y-84868835D01*
X162638127Y-84874500D01*
X162693424Y-84874499D01*
X162760461Y-84894182D01*
X162806216Y-84946986D01*
X162816161Y-85016144D01*
X162787137Y-85079700D01*
X162766309Y-85098817D01*
X162622749Y-85203119D01*
X162483115Y-85342753D01*
X162367058Y-85502495D01*
X162277408Y-85678441D01*
X162216389Y-85866236D01*
X162185500Y-86061263D01*
X162185500Y-86258736D01*
X162216389Y-86453763D01*
X162277348Y-86641373D01*
X162277409Y-86641561D01*
X162352483Y-86788900D01*
X162367058Y-86817504D01*
X162483115Y-86977246D01*
X162622753Y-87116884D01*
X162746158Y-87206541D01*
X162782499Y-87232944D01*
X162952404Y-87319516D01*
X163003199Y-87367490D01*
X163019994Y-87435311D01*
X162997456Y-87501446D01*
X162952404Y-87540483D01*
X162845282Y-87595066D01*
X162782495Y-87627058D01*
X162622753Y-87743115D01*
X162483115Y-87882753D01*
X162367058Y-88042495D01*
X162277408Y-88218441D01*
X162216389Y-88406236D01*
X162185500Y-88601263D01*
X162185500Y-88798736D01*
X162216389Y-88993763D01*
X162275670Y-89176209D01*
X162277409Y-89181561D01*
X162341892Y-89308114D01*
X162367058Y-89357504D01*
X162483115Y-89517246D01*
X162622753Y-89656884D01*
X162751416Y-89750361D01*
X162782499Y-89772944D01*
X162952404Y-89859516D01*
X163003199Y-89907490D01*
X163019994Y-89975311D01*
X162997456Y-90041446D01*
X162952404Y-90080483D01*
X162851478Y-90131909D01*
X162782495Y-90167058D01*
X162622753Y-90283115D01*
X162483115Y-90422753D01*
X162367058Y-90582495D01*
X162277408Y-90758441D01*
X162216389Y-90946236D01*
X162185500Y-91141263D01*
X162185500Y-91338736D01*
X162216389Y-91533763D01*
X162261031Y-91671155D01*
X162277409Y-91721561D01*
X162354618Y-91873090D01*
X162367058Y-91897504D01*
X162483115Y-92057246D01*
X162622753Y-92196884D01*
X162772234Y-92305486D01*
X162782499Y-92312944D01*
X162952404Y-92399516D01*
X163003199Y-92447490D01*
X163019994Y-92515311D01*
X162997456Y-92581446D01*
X162952404Y-92620483D01*
X162795321Y-92700522D01*
X162782495Y-92707058D01*
X162622753Y-92823115D01*
X162483115Y-92962753D01*
X162367058Y-93122495D01*
X162277408Y-93298441D01*
X162216389Y-93486236D01*
X162185500Y-93681263D01*
X162185500Y-93878736D01*
X162216389Y-94073763D01*
X162264172Y-94220821D01*
X162277409Y-94261561D01*
X162330884Y-94366510D01*
X162367058Y-94437504D01*
X162483115Y-94597246D01*
X162622753Y-94736884D01*
X162755721Y-94833489D01*
X162782499Y-94852944D01*
X162952404Y-94939516D01*
X163003199Y-94987490D01*
X163019994Y-95055311D01*
X162997456Y-95121446D01*
X162952404Y-95160483D01*
X162832094Y-95221786D01*
X162782495Y-95247058D01*
X162622753Y-95363115D01*
X162483115Y-95502753D01*
X162367058Y-95662495D01*
X162277408Y-95838441D01*
X162216389Y-96026236D01*
X162185500Y-96221263D01*
X162185500Y-96418736D01*
X162216389Y-96613763D01*
X162263999Y-96760289D01*
X162277409Y-96801561D01*
X162367056Y-96977501D01*
X162367058Y-96977504D01*
X162483115Y-97137246D01*
X162622753Y-97276884D01*
X162696112Y-97330181D01*
X162782499Y-97392944D01*
X162952404Y-97479516D01*
X163003199Y-97527490D01*
X163019994Y-97595311D01*
X162997456Y-97661446D01*
X162952404Y-97700483D01*
X162795321Y-97780522D01*
X162782495Y-97787058D01*
X162622753Y-97903115D01*
X162483115Y-98042753D01*
X162367058Y-98202495D01*
X162367056Y-98202499D01*
X162296921Y-98340146D01*
X162277408Y-98378441D01*
X162216389Y-98566236D01*
X162185500Y-98761263D01*
X162185500Y-98958736D01*
X162216389Y-99153763D01*
X162277408Y-99341558D01*
X162277409Y-99341561D01*
X162352570Y-99489070D01*
X162367058Y-99517504D01*
X162483115Y-99677246D01*
X162622753Y-99816884D01*
X162751449Y-99910385D01*
X162782499Y-99932944D01*
X162952404Y-100019516D01*
X163003199Y-100067490D01*
X163019994Y-100135311D01*
X162997456Y-100201446D01*
X162952404Y-100240483D01*
X162844101Y-100295668D01*
X162782495Y-100327058D01*
X162622753Y-100443115D01*
X162483115Y-100582753D01*
X162367058Y-100742495D01*
X162277408Y-100918441D01*
X162216389Y-101106236D01*
X162185500Y-101301263D01*
X162185500Y-101498736D01*
X162216389Y-101693763D01*
X162252158Y-101803847D01*
X162277409Y-101881561D01*
X162367056Y-102057501D01*
X162367058Y-102057504D01*
X162483115Y-102217246D01*
X162622753Y-102356884D01*
X162772234Y-102465486D01*
X162782499Y-102472944D01*
X162952404Y-102559516D01*
X163003199Y-102607490D01*
X163019994Y-102675311D01*
X162997456Y-102741446D01*
X162952404Y-102780483D01*
X162795321Y-102860522D01*
X162782495Y-102867058D01*
X162622753Y-102983115D01*
X162483115Y-103122753D01*
X162367058Y-103282495D01*
X162367056Y-103282499D01*
X162317792Y-103379185D01*
X162280485Y-103452403D01*
X162232510Y-103503199D01*
X162164689Y-103519994D01*
X162098554Y-103497456D01*
X162059515Y-103452403D01*
X161972944Y-103282499D01*
X161937345Y-103233501D01*
X161856884Y-103122753D01*
X161717246Y-102983115D01*
X161557504Y-102867058D01*
X161557503Y-102867057D01*
X161557501Y-102867056D01*
X161381561Y-102777409D01*
X161381558Y-102777408D01*
X161193763Y-102716389D01*
X160998736Y-102685500D01*
X160998731Y-102685500D01*
X160801269Y-102685500D01*
X160801264Y-102685500D01*
X160606236Y-102716389D01*
X160418441Y-102777408D01*
X160242495Y-102867058D01*
X160082753Y-102983115D01*
X159943115Y-103122753D01*
X159827058Y-103282495D01*
X159827056Y-103282499D01*
X159777792Y-103379185D01*
X159740485Y-103452403D01*
X159692510Y-103503199D01*
X159624689Y-103519994D01*
X159558554Y-103497456D01*
X159519515Y-103452403D01*
X159432944Y-103282499D01*
X159397345Y-103233501D01*
X159316884Y-103122753D01*
X159177246Y-102983115D01*
X159017504Y-102867058D01*
X159017503Y-102867057D01*
X159017501Y-102867056D01*
X158841561Y-102777409D01*
X158841558Y-102777408D01*
X158653763Y-102716389D01*
X158458736Y-102685500D01*
X158458731Y-102685500D01*
X158261269Y-102685500D01*
X158261264Y-102685500D01*
X158066236Y-102716389D01*
X157878441Y-102777408D01*
X157702495Y-102867058D01*
X157542753Y-102983115D01*
X157403115Y-103122753D01*
X157287058Y-103282495D01*
X157287056Y-103282499D01*
X157237792Y-103379185D01*
X157200485Y-103452403D01*
X157152510Y-103503199D01*
X157084689Y-103519994D01*
X157018554Y-103497456D01*
X156979515Y-103452403D01*
X156892944Y-103282499D01*
X156857345Y-103233501D01*
X156776884Y-103122753D01*
X156637246Y-102983115D01*
X156477504Y-102867058D01*
X156477503Y-102867057D01*
X156477501Y-102867056D01*
X156301561Y-102777409D01*
X156301558Y-102777408D01*
X156113763Y-102716389D01*
X155918736Y-102685500D01*
X155918731Y-102685500D01*
X155721269Y-102685500D01*
X155721264Y-102685500D01*
X155526236Y-102716389D01*
X155338441Y-102777408D01*
X155162495Y-102867058D01*
X155002753Y-102983115D01*
X154863115Y-103122753D01*
X154747058Y-103282495D01*
X154747056Y-103282499D01*
X154697792Y-103379185D01*
X154660485Y-103452403D01*
X154612510Y-103503199D01*
X154544689Y-103519994D01*
X154478554Y-103497456D01*
X154439515Y-103452403D01*
X154352944Y-103282499D01*
X154317345Y-103233501D01*
X154236884Y-103122753D01*
X154097246Y-102983115D01*
X153937504Y-102867058D01*
X153937503Y-102867057D01*
X153937501Y-102867056D01*
X153761561Y-102777409D01*
X153761558Y-102777408D01*
X153573763Y-102716389D01*
X153378736Y-102685500D01*
X153378731Y-102685500D01*
X153181269Y-102685500D01*
X153181264Y-102685500D01*
X152986236Y-102716389D01*
X152798441Y-102777408D01*
X152622495Y-102867058D01*
X152462753Y-102983115D01*
X152323115Y-103122753D01*
X152207058Y-103282495D01*
X152207056Y-103282499D01*
X152157792Y-103379185D01*
X152120485Y-103452403D01*
X152072510Y-103503199D01*
X152004689Y-103519994D01*
X151938554Y-103497456D01*
X151899515Y-103452403D01*
X151812944Y-103282499D01*
X151777345Y-103233501D01*
X151696884Y-103122753D01*
X151557246Y-102983115D01*
X151397504Y-102867058D01*
X151397503Y-102867057D01*
X151397501Y-102867056D01*
X151221561Y-102777409D01*
X151221558Y-102777408D01*
X151033763Y-102716389D01*
X150838736Y-102685500D01*
X150838731Y-102685500D01*
X150641269Y-102685500D01*
X150641264Y-102685500D01*
X150446236Y-102716389D01*
X150258441Y-102777408D01*
X150082495Y-102867058D01*
X149922753Y-102983115D01*
X149783115Y-103122753D01*
X149667058Y-103282495D01*
X149667056Y-103282499D01*
X149617792Y-103379185D01*
X149580485Y-103452403D01*
X149532510Y-103503199D01*
X149464689Y-103519994D01*
X149398554Y-103497456D01*
X149359515Y-103452403D01*
X149272944Y-103282499D01*
X149237345Y-103233501D01*
X149156884Y-103122753D01*
X149017246Y-102983115D01*
X148857505Y-102867058D01*
X148851119Y-102863804D01*
X148687593Y-102780482D01*
X148636800Y-102732510D01*
X148620005Y-102664689D01*
X148642542Y-102598554D01*
X148687593Y-102559517D01*
X148857501Y-102472944D01*
X148877912Y-102458114D01*
X149017246Y-102356884D01*
X149017248Y-102356881D01*
X149017252Y-102356879D01*
X149156879Y-102217252D01*
X149156881Y-102217248D01*
X149156884Y-102217246D01*
X149207779Y-102147192D01*
X149272944Y-102057501D01*
X149362591Y-101881561D01*
X149423610Y-101693763D01*
X149441646Y-101579890D01*
X149454500Y-101498736D01*
X149454500Y-101301263D01*
X149423610Y-101106236D01*
X149396170Y-101021786D01*
X149362591Y-100918439D01*
X149272944Y-100742499D01*
X149265486Y-100732234D01*
X149156884Y-100582753D01*
X149017246Y-100443115D01*
X148857505Y-100327058D01*
X148795899Y-100295668D01*
X148687593Y-100240482D01*
X148636800Y-100192510D01*
X148620005Y-100124689D01*
X148642542Y-100058554D01*
X148687593Y-100019517D01*
X148857501Y-99932944D01*
X148992604Y-99834787D01*
X149017246Y-99816884D01*
X149017248Y-99816881D01*
X149017252Y-99816879D01*
X149156879Y-99677252D01*
X149156881Y-99677248D01*
X149156884Y-99677246D01*
X149213369Y-99599500D01*
X149272944Y-99517501D01*
X149362591Y-99341561D01*
X149423610Y-99153763D01*
X149428775Y-99121153D01*
X149454500Y-98958736D01*
X149454500Y-98761263D01*
X149423610Y-98566236D01*
X149398221Y-98488098D01*
X149362591Y-98378439D01*
X149272944Y-98202499D01*
X149221283Y-98131393D01*
X149156884Y-98042753D01*
X149017246Y-97903115D01*
X148857505Y-97787058D01*
X148851119Y-97783804D01*
X148687593Y-97700482D01*
X148636800Y-97652510D01*
X148620005Y-97584689D01*
X148642542Y-97518554D01*
X148687593Y-97479517D01*
X148857501Y-97392944D01*
X148943892Y-97330178D01*
X149017246Y-97276884D01*
X149017248Y-97276881D01*
X149017252Y-97276879D01*
X149156879Y-97137252D01*
X149156881Y-97137248D01*
X149156884Y-97137246D01*
X149207779Y-97067192D01*
X149272944Y-96977501D01*
X149362591Y-96801561D01*
X149423610Y-96613763D01*
X149441646Y-96499890D01*
X149454500Y-96418736D01*
X149454500Y-96221263D01*
X149423610Y-96026236D01*
X149373114Y-95870827D01*
X149362591Y-95838439D01*
X149272944Y-95662499D01*
X149248032Y-95628210D01*
X149156884Y-95502753D01*
X149017246Y-95363115D01*
X148857505Y-95247058D01*
X148807906Y-95221786D01*
X148687593Y-95160482D01*
X148636800Y-95112510D01*
X148620005Y-95044689D01*
X148642542Y-94978554D01*
X148687593Y-94939517D01*
X148857501Y-94852944D01*
X148884279Y-94833489D01*
X149017246Y-94736884D01*
X149017248Y-94736881D01*
X149017252Y-94736879D01*
X149156879Y-94597252D01*
X149156881Y-94597248D01*
X149156884Y-94597246D01*
X149212168Y-94521153D01*
X149272944Y-94437501D01*
X149362591Y-94261561D01*
X149423610Y-94073763D01*
X149423812Y-94072487D01*
X149454500Y-93878736D01*
X149454500Y-93681263D01*
X149423610Y-93486236D01*
X149372776Y-93329786D01*
X149362591Y-93298439D01*
X149272944Y-93122499D01*
X149253474Y-93095700D01*
X149156884Y-92962753D01*
X149017246Y-92823115D01*
X148857505Y-92707058D01*
X148851119Y-92703804D01*
X148687593Y-92620482D01*
X148636800Y-92572510D01*
X148620005Y-92504689D01*
X148642542Y-92438554D01*
X148687593Y-92399517D01*
X148857501Y-92312944D01*
X148929975Y-92260289D01*
X149017246Y-92196884D01*
X149017248Y-92196881D01*
X149017252Y-92196879D01*
X149156879Y-92057252D01*
X149156881Y-92057248D01*
X149156884Y-92057246D01*
X149227548Y-91959984D01*
X149272944Y-91897501D01*
X149362591Y-91721561D01*
X149423610Y-91533763D01*
X149426369Y-91516342D01*
X149454500Y-91338736D01*
X149454500Y-91141263D01*
X149423610Y-90946236D01*
X149398219Y-90868091D01*
X149362591Y-90758439D01*
X149272944Y-90582499D01*
X149257005Y-90560560D01*
X149156884Y-90422753D01*
X149017246Y-90283115D01*
X148857505Y-90167058D01*
X148817052Y-90146446D01*
X148687593Y-90080482D01*
X148636800Y-90032510D01*
X148620005Y-89964689D01*
X148642542Y-89898554D01*
X148687593Y-89859517D01*
X148857501Y-89772944D01*
X148970287Y-89691001D01*
X149017246Y-89656884D01*
X149017248Y-89656881D01*
X149017252Y-89656879D01*
X149156879Y-89517252D01*
X149156881Y-89517248D01*
X149156884Y-89517246D01*
X149207779Y-89447192D01*
X149272944Y-89357501D01*
X149362591Y-89181561D01*
X149423610Y-88993763D01*
X149441646Y-88879890D01*
X149454500Y-88798736D01*
X149454500Y-88601263D01*
X149423610Y-88406236D01*
X149403270Y-88343637D01*
X149362591Y-88218439D01*
X149272944Y-88042499D01*
X149231202Y-87985045D01*
X149156884Y-87882753D01*
X149017246Y-87743115D01*
X148857505Y-87627058D01*
X148852334Y-87624423D01*
X148687043Y-87540202D01*
X148636250Y-87492230D01*
X148619455Y-87424409D01*
X148641992Y-87358275D01*
X148687046Y-87319235D01*
X148857241Y-87232516D01*
X148892988Y-87206543D01*
X148892988Y-87206541D01*
X148329410Y-86642962D01*
X148392993Y-86625925D01*
X148507007Y-86560099D01*
X148600099Y-86467007D01*
X148665925Y-86352993D01*
X148682962Y-86289409D01*
X149246541Y-86852988D01*
X149246543Y-86852988D01*
X149272516Y-86817241D01*
X149362126Y-86641373D01*
X149423123Y-86453646D01*
X149454000Y-86258697D01*
X149454000Y-86061302D01*
X149423123Y-85866353D01*
X149362126Y-85678626D01*
X149272520Y-85502768D01*
X149272512Y-85502755D01*
X149246542Y-85467010D01*
X149246541Y-85467009D01*
X148682962Y-86030589D01*
X148665925Y-85967007D01*
X148600099Y-85852993D01*
X148507007Y-85759901D01*
X148392993Y-85694075D01*
X148329409Y-85677037D01*
X148892989Y-85113457D01*
X148857236Y-85087481D01*
X148687045Y-85000763D01*
X148636250Y-84952789D01*
X148619455Y-84884968D01*
X148641993Y-84818833D01*
X148687042Y-84779798D01*
X148857501Y-84692944D01*
X148934492Y-84637007D01*
X149017246Y-84576884D01*
X149017248Y-84576881D01*
X149017252Y-84576879D01*
X149156879Y-84437252D01*
X149156881Y-84437248D01*
X149156884Y-84437246D01*
X149210045Y-84364075D01*
X149272944Y-84277501D01*
X149362591Y-84101561D01*
X149423610Y-83913763D01*
X149430125Y-83872627D01*
X149454500Y-83718736D01*
X149454500Y-83521263D01*
X149423610Y-83326236D01*
X149403270Y-83263637D01*
X149362591Y-83138439D01*
X149272944Y-82962499D01*
X149265486Y-82952234D01*
X149156884Y-82802753D01*
X149017246Y-82663115D01*
X148857504Y-82547058D01*
X148857503Y-82547057D01*
X148857501Y-82547056D01*
X148681561Y-82457409D01*
X148681558Y-82457408D01*
X148493763Y-82396389D01*
X148298736Y-82365500D01*
X148298731Y-82365500D01*
X148101269Y-82365500D01*
X148101264Y-82365500D01*
X147906236Y-82396389D01*
X147718441Y-82457408D01*
X147542495Y-82547058D01*
X147382753Y-82663115D01*
X147243115Y-82802753D01*
X147127058Y-82962495D01*
X147037408Y-83138441D01*
X146976389Y-83326236D01*
X146945500Y-83521263D01*
X140300500Y-83521263D01*
X140300500Y-83504426D01*
X140300816Y-83495580D01*
X140301472Y-83486403D01*
X140315130Y-83295436D01*
X140317646Y-83277938D01*
X140359356Y-83086199D01*
X140364333Y-83069248D01*
X140432911Y-82885385D01*
X140440259Y-82869298D01*
X140468200Y-82818127D01*
X140534291Y-82697089D01*
X140543845Y-82682221D01*
X140661448Y-82525123D01*
X140673020Y-82511769D01*
X140811769Y-82373020D01*
X140825123Y-82361448D01*
X140982221Y-82243845D01*
X140997089Y-82234291D01*
X141169298Y-82140258D01*
X141185385Y-82132911D01*
X141369248Y-82064333D01*
X141386199Y-82059356D01*
X141577938Y-82017646D01*
X141595436Y-82015130D01*
X141795582Y-82000816D01*
X141804428Y-82000500D01*
X141865892Y-82000500D01*
X208934108Y-82000500D01*
X208995572Y-82000500D01*
X209004418Y-82000816D01*
G37*
%TD.AperFunction*%
%TA.AperFunction,Conductor*%
G36*
X141466091Y-89176209D02*
G01*
X141615791Y-89325909D01*
X141733861Y-89411691D01*
X140980899Y-90164652D01*
X140980900Y-90164653D01*
X141100993Y-90260427D01*
X141100997Y-90260429D01*
X141329247Y-90403847D01*
X141572104Y-90520801D01*
X141572118Y-90520807D01*
X141826536Y-90609832D01*
X141826548Y-90609836D01*
X142089348Y-90669818D01*
X142089366Y-90669821D01*
X142357212Y-90699999D01*
X142357216Y-90700000D01*
X142626784Y-90700000D01*
X142626787Y-90699999D01*
X142894633Y-90669821D01*
X142894651Y-90669818D01*
X143157451Y-90609836D01*
X143226928Y-90585524D01*
X143296707Y-90581961D01*
X143357335Y-90616689D01*
X143389563Y-90678682D01*
X143390358Y-90683166D01*
X143406428Y-90784627D01*
X143465553Y-90966592D01*
X143552410Y-91137059D01*
X143573019Y-91165425D01*
X144141696Y-90596748D01*
X144163349Y-90677553D01*
X144223909Y-90782446D01*
X144309554Y-90868091D01*
X144414447Y-90928651D01*
X144495250Y-90950302D01*
X143926572Y-91518979D01*
X143926573Y-91518980D01*
X143954934Y-91539586D01*
X144125408Y-91626447D01*
X144141901Y-91631806D01*
X144199577Y-91671242D01*
X144226776Y-91735601D01*
X144214862Y-91804447D01*
X144167618Y-91855924D01*
X144141904Y-91867667D01*
X144125217Y-91873088D01*
X143954673Y-91959986D01*
X143799835Y-92072481D01*
X143799830Y-92072485D01*
X143664485Y-92207830D01*
X143664481Y-92207835D01*
X143551986Y-92362673D01*
X143465090Y-92533215D01*
X143405941Y-92715255D01*
X143376000Y-92904299D01*
X143376000Y-93095700D01*
X143405941Y-93284744D01*
X143465090Y-93466784D01*
X143551986Y-93637326D01*
X143664481Y-93792164D01*
X143664485Y-93792169D01*
X143784635Y-93912319D01*
X143818120Y-93973642D01*
X143813136Y-94043334D01*
X143784635Y-94087681D01*
X143664485Y-94207830D01*
X143664481Y-94207835D01*
X143551986Y-94362673D01*
X143465090Y-94533215D01*
X143405941Y-94715255D01*
X143376000Y-94904299D01*
X143376000Y-95095700D01*
X143405941Y-95284744D01*
X143405942Y-95284747D01*
X143465089Y-95466782D01*
X143547342Y-95628213D01*
X143551986Y-95637326D01*
X143664481Y-95792164D01*
X143664485Y-95792169D01*
X143799830Y-95927514D01*
X143799835Y-95927518D01*
X143954672Y-96040013D01*
X143954674Y-96040014D01*
X143954677Y-96040016D01*
X144101873Y-96115016D01*
X144152668Y-96162989D01*
X144169463Y-96230810D01*
X144146926Y-96296945D01*
X144092211Y-96340397D01*
X144045578Y-96349500D01*
X143894130Y-96349500D01*
X143894123Y-96349501D01*
X143834516Y-96355908D01*
X143699671Y-96406202D01*
X143699664Y-96406206D01*
X143584455Y-96492452D01*
X143584452Y-96492455D01*
X143498206Y-96607664D01*
X143498202Y-96607671D01*
X143447908Y-96742517D01*
X143441561Y-96801558D01*
X143441501Y-96802123D01*
X143441500Y-96802135D01*
X143441500Y-97314794D01*
X143421815Y-97381833D01*
X143369011Y-97427588D01*
X143299853Y-97437532D01*
X143276546Y-97431836D01*
X143157453Y-97390164D01*
X143157451Y-97390163D01*
X142894651Y-97330181D01*
X142894633Y-97330178D01*
X142626787Y-97300000D01*
X142357212Y-97300000D01*
X142089366Y-97330178D01*
X142089348Y-97330181D01*
X141826548Y-97390163D01*
X141826536Y-97390167D01*
X141572118Y-97479192D01*
X141572104Y-97479198D01*
X141329247Y-97596152D01*
X141101001Y-97739568D01*
X140980899Y-97835345D01*
X141698065Y-98552511D01*
X141583218Y-98635953D01*
X141427953Y-98791218D01*
X141344511Y-98906065D01*
X140627345Y-98188899D01*
X140531566Y-98309003D01*
X140529493Y-98312303D01*
X140477158Y-98358594D01*
X140408104Y-98369241D01*
X140344256Y-98340865D01*
X140305885Y-98282475D01*
X140300500Y-98246330D01*
X140300500Y-96171153D01*
X141691500Y-96171153D01*
X141691500Y-96328846D01*
X141722261Y-96483489D01*
X141722264Y-96483501D01*
X141782602Y-96629172D01*
X141782609Y-96629185D01*
X141870210Y-96760288D01*
X141870213Y-96760292D01*
X141981707Y-96871786D01*
X141981711Y-96871789D01*
X142112814Y-96959390D01*
X142112827Y-96959397D01*
X142238822Y-97011585D01*
X142258503Y-97019737D01*
X142413153Y-97050499D01*
X142413156Y-97050500D01*
X142413158Y-97050500D01*
X142570844Y-97050500D01*
X142570845Y-97050499D01*
X142725497Y-97019737D01*
X142871179Y-96959394D01*
X143002289Y-96871789D01*
X143113789Y-96760289D01*
X143201394Y-96629179D01*
X143207780Y-96613763D01*
X143254947Y-96499890D01*
X143261737Y-96483497D01*
X143292500Y-96328842D01*
X143292500Y-96171158D01*
X143292500Y-96171155D01*
X143292499Y-96171153D01*
X143261738Y-96016510D01*
X143261737Y-96016503D01*
X143261735Y-96016498D01*
X143201397Y-95870827D01*
X143201390Y-95870814D01*
X143113789Y-95739711D01*
X143113786Y-95739707D01*
X143002292Y-95628213D01*
X143002288Y-95628210D01*
X142871185Y-95540609D01*
X142871172Y-95540602D01*
X142725501Y-95480264D01*
X142725489Y-95480261D01*
X142570845Y-95449500D01*
X142570842Y-95449500D01*
X142413158Y-95449500D01*
X142413155Y-95449500D01*
X142258510Y-95480261D01*
X142258498Y-95480264D01*
X142112827Y-95540602D01*
X142112814Y-95540609D01*
X141981711Y-95628210D01*
X141981707Y-95628213D01*
X141870213Y-95739707D01*
X141870210Y-95739711D01*
X141782609Y-95870814D01*
X141782602Y-95870827D01*
X141722264Y-96016498D01*
X141722261Y-96016510D01*
X141691500Y-96171153D01*
X140300500Y-96171153D01*
X140300500Y-91671153D01*
X141691500Y-91671153D01*
X141691500Y-91828846D01*
X141722261Y-91983489D01*
X141722264Y-91983501D01*
X141782602Y-92129172D01*
X141782609Y-92129185D01*
X141870210Y-92260288D01*
X141870213Y-92260292D01*
X141981707Y-92371786D01*
X141981711Y-92371789D01*
X142112814Y-92459390D01*
X142112827Y-92459397D01*
X142258498Y-92519735D01*
X142258503Y-92519737D01*
X142413153Y-92550499D01*
X142413156Y-92550500D01*
X142413158Y-92550500D01*
X142570844Y-92550500D01*
X142570845Y-92550499D01*
X142725497Y-92519737D01*
X142871179Y-92459394D01*
X143002289Y-92371789D01*
X143113789Y-92260289D01*
X143201394Y-92129179D01*
X143261737Y-91983497D01*
X143292500Y-91828842D01*
X143292500Y-91671158D01*
X143292500Y-91671155D01*
X143292499Y-91671153D01*
X143283606Y-91626446D01*
X143261737Y-91516503D01*
X143222102Y-91420814D01*
X143201397Y-91370827D01*
X143201390Y-91370814D01*
X143113789Y-91239711D01*
X143113786Y-91239707D01*
X143002292Y-91128213D01*
X143002288Y-91128210D01*
X142871185Y-91040609D01*
X142871172Y-91040602D01*
X142725501Y-90980264D01*
X142725489Y-90980261D01*
X142570845Y-90949500D01*
X142570842Y-90949500D01*
X142413158Y-90949500D01*
X142413155Y-90949500D01*
X142258510Y-90980261D01*
X142258498Y-90980264D01*
X142112827Y-91040602D01*
X142112814Y-91040609D01*
X141981711Y-91128210D01*
X141981707Y-91128213D01*
X141870213Y-91239707D01*
X141870210Y-91239711D01*
X141782609Y-91370814D01*
X141782602Y-91370827D01*
X141722264Y-91516498D01*
X141722261Y-91516510D01*
X141691500Y-91671153D01*
X140300500Y-91671153D01*
X140300500Y-89753669D01*
X140320185Y-89686630D01*
X140372989Y-89640875D01*
X140442147Y-89630931D01*
X140505703Y-89659956D01*
X140529498Y-89687703D01*
X140531570Y-89691001D01*
X140627346Y-89811099D01*
X141380307Y-89058137D01*
X141466091Y-89176209D01*
G37*
%TD.AperFunction*%
%TA.AperFunction,Conductor*%
G36*
X144371438Y-89825884D02*
G01*
X144404923Y-89887207D01*
X144407757Y-89913565D01*
X144407757Y-89962203D01*
X144495251Y-90049697D01*
X144414447Y-90071349D01*
X144309554Y-90131909D01*
X144223909Y-90217554D01*
X144163349Y-90322447D01*
X144141697Y-90403251D01*
X143550130Y-89811684D01*
X143516645Y-89750361D01*
X143513811Y-89724003D01*
X143513811Y-89675365D01*
X143250138Y-89411692D01*
X143368209Y-89325909D01*
X143517909Y-89176209D01*
X143603692Y-89058138D01*
X144371438Y-89825884D01*
G37*
%TD.AperFunction*%
%TD*%
M02*
