M48
; DRILL file {KiCad 9.0.0} date 2026-08-11T00:06:09-0500
; FORMAT={-:-/ absolute / metric / decimal}
; #@! TF.CreationDate,2026-08-11T00:06:09-05:00
; #@! TF.GenerationSoftware,Kicad,Pcbnew,9.0.0
; #@! TF.FileFunction,Plated,1,4,PTH
FMAT,2
METRIC
; #@! TA.AperFunction,Plated,PTH,ViaDrill
T1C0.300
; #@! TA.AperFunction,Plated,PTH,ComponentDrill
T2C0.920
; #@! TA.AperFunction,Plated,PTH,ComponentDrill
T3C1.000
; #@! TA.AperFunction,Plated,PTH,ComponentDrill
T4C2.690
; #@! TA.AperFunction,Plated,PTH,ComponentDrill
T5C2.790
%
G90
G05
T1
X142.2Y-105.5
X144.7Y-104.55
X145.132Y-83.6
X171.5Y-96.4
X171.5Y-98.5
X172.1Y-104.3
X173.15Y-98.5
X173.225Y-93.6
X173.3Y-91.6
X176.1Y-97.9
X177.6Y-89.362
X177.6Y-91.438
X178.5Y-99.2
X178.5Y-103.0
X180.2Y-91.8
X181.0Y-96.624
X183.428Y-99.11
X183.8Y-91.8
X185.1Y-100.4
X186.2Y-94.6
X188.275Y-92.57
X188.275Y-94.6
X195.664Y-88.46
X195.664Y-96.24
X196.459Y-100.545
X196.789Y-86.655
X205.789Y-86.655
X207.789Y-100.545
X207.939Y-86.255
X208.419Y-90.8
T2
X144.592Y-90.5
X144.592Y-93.0
X144.592Y-95.0
X144.592Y-97.5
T3
X148.2Y-83.62
X148.2Y-86.16
X148.2Y-88.7
X148.2Y-91.24
X148.2Y-93.78
X148.2Y-96.32
X148.2Y-98.86
X148.2Y-101.4
X148.2Y-103.94
X150.74Y-103.94
X153.28Y-103.94
X155.82Y-103.94
X158.36Y-103.94
X160.9Y-103.94
X163.44Y-83.62
X163.44Y-86.16
X163.44Y-88.7
X163.44Y-91.24
X163.44Y-93.78
X163.44Y-96.32
X163.44Y-98.86
X163.44Y-101.4
X163.44Y-103.94
X166.975Y-84.83
X166.975Y-87.37
X166.975Y-89.91
X166.975Y-92.45
X166.975Y-94.99
X166.975Y-97.53
X166.975Y-100.07
X166.975Y-102.61
T4
X142.492Y-88.3
T5
X142.492Y-99.7
M30
