%TF.GenerationSoftware,KiCad,Pcbnew,9.0.0*%
%TF.CreationDate,2026-08-11T00:05:00-05:00*%
%TF.ProjectId,USB_with_Screen,5553425f-7769-4746-985f-53637265656e,rev?*%
%TF.SameCoordinates,Original*%
%TF.FileFunction,Soldermask,Top*%
%TF.FilePolarity,Negative*%
%FSLAX46Y46*%
G04 Gerber Fmt 4.6, Leading zero omitted, Abs format (unit mm)*
G04 Created by KiCad (PCBNEW 9.0.0) date 2026-08-11 00:05:00*
%MOMM*%
%LPD*%
G01*
G04 APERTURE LIST*
G04 Aperture macros list*
%AMRoundRect*
0 Rectangle with rounded corners*
0 $1 Rounding radius*
0 $2 $3 $4 $5 $6 $7 $8 $9 X,Y pos of 4 corners*
0 Add a 4 corners polygon primitive as box body*
4,1,4,$2,$3,$4,$5,$6,$7,$8,$9,$2,$3,0*
0 Add four circle primitives for the rounded corners*
1,1,$1+$1,$2,$3*
1,1,$1+$1,$4,$5*
1,1,$1+$1,$6,$7*
1,1,$1+$1,$8,$9*
0 Add four rect primitives between the rounded corners*
20,1,$1+$1,$2,$3,$4,$5,0*
20,1,$1+$1,$4,$5,$6,$7,0*
20,1,$1+$1,$6,$7,$8,$9,0*
20,1,$1+$1,$8,$9,$2,$3,0*%
G04 Aperture macros list end*
%ADD10R,1.700000X1.700000*%
%ADD11O,1.700000X1.700000*%
%ADD12RoundRect,0.102000X-0.754000X-0.754000X0.754000X-0.754000X0.754000X0.754000X-0.754000X0.754000X0*%
%ADD13C,1.712000*%
%ADD14R,1.250000X0.600000*%
%ADD15R,0.465000X0.400000*%
%ADD16C,1.100000*%
%ADD17R,1.300000X1.300000*%
%ADD18C,1.431000*%
%ADD19C,3.800000*%
G04 APERTURE END LIST*
D10*
%TO.C,J3*%
X166975000Y-84830000D03*
D11*
X166975000Y-87370000D03*
X166975000Y-89910000D03*
X166975000Y-92450000D03*
X166975000Y-94990000D03*
X166975000Y-97530000D03*
X166975000Y-100070000D03*
X166975000Y-102610000D03*
%TD*%
D12*
%TO.C,U3*%
X163440000Y-83620000D03*
D13*
X163440000Y-86160000D03*
X163440000Y-88700000D03*
X163440000Y-91240000D03*
X163440000Y-93780000D03*
X163440000Y-96320000D03*
X163440000Y-98860000D03*
X163440000Y-101400000D03*
X163440000Y-103940000D03*
X160900000Y-103940000D03*
X158360000Y-103940000D03*
X155820000Y-103940000D03*
X153280000Y-103940000D03*
X150740000Y-103940000D03*
X148200000Y-103940000D03*
X148200000Y-101400000D03*
X148200000Y-98860000D03*
X148200000Y-96320000D03*
X148200000Y-93780000D03*
X148200000Y-91240000D03*
X148200000Y-88700000D03*
X148200000Y-86160000D03*
X148200000Y-83620000D03*
%TD*%
D14*
%TO.C,IC1*%
X144700000Y-105500000D03*
X144700000Y-104550000D03*
X144700000Y-103600000D03*
X142200000Y-103600000D03*
X142200000Y-105500000D03*
%TD*%
D15*
%TO.C,D1*%
X145132000Y-84400000D03*
X145132000Y-83600000D03*
X143868000Y-84000000D03*
%TD*%
D16*
%TO.C,J1*%
X142492000Y-91750000D03*
X142492000Y-96250000D03*
D17*
X144592000Y-97500000D03*
D18*
X144592000Y-95000000D03*
X144592000Y-93000000D03*
X144592000Y-90500000D03*
D19*
X142492000Y-99700000D03*
X142492000Y-88300000D03*
%TD*%
M02*
