%TF.GenerationSoftware,KiCad,Pcbnew,9.0.0*%
%TF.CreationDate,2026-08-11T00:05:00-05:00*%
%TF.ProjectId,USB_with_Screen,5553425f-7769-4746-985f-53637265656e,rev?*%
%TF.SameCoordinates,Original*%
%TF.FileFunction,Soldermask,Bot*%
%TF.FilePolarity,Negative*%
%FSLAX46Y46*%
G04 Gerber Fmt 4.6, Leading zero omitted, Abs format (unit mm)*
G04 Created by KiCad (PCBNEW 9.0.0) date 2026-08-11 00:05:00*
%MOMM*%
%LPD*%
G01*
G04 APERTURE LIST*
G04 Aperture macros list*
%AMRoundRect*
0 Rectangle with rounded corners*
0 $1 Rounding radius*
0 $2 $3 $4 $5 $6 $7 $8 $9 X,Y pos of 4 corners*
0 Add a 4 corners polygon primitive as box body*
4,1,4,$2,$3,$4,$5,$6,$7,$8,$9,$2,$3,0*
0 Add four circle primitives for the rounded corners*
1,1,$1+$1,$2,$3*
1,1,$1+$1,$4,$5*
1,1,$1+$1,$6,$7*
1,1,$1+$1,$8,$9*
0 Add four rect primitives between the rounded corners*
20,1,$1+$1,$2,$3,$4,$5,0*
20,1,$1+$1,$4,$5,$6,$7,0*
20,1,$1+$1,$6,$7,$8,$9,0*
20,1,$1+$1,$8,$9,$2,$3,0*%
G04 Aperture macros list end*
%ADD10R,1.700000X1.700000*%
%ADD11O,1.700000X1.700000*%
%ADD12R,1.508000X1.508000*%
%ADD13C,1.508000*%
%ADD14C,1.100000*%
%ADD15R,1.300000X1.300000*%
%ADD16C,1.431000*%
%ADD17C,3.800000*%
%ADD18RoundRect,0.250000X0.350000X0.450000X-0.350000X0.450000X-0.350000X-0.450000X0.350000X-0.450000X0*%
%ADD19R,1.240000X0.800000*%
%ADD20R,1.250000X1.150000*%
%ADD21R,2.500000X1.150000*%
%ADD22R,2.200000X1.150000*%
%ADD23R,1.200000X1.150000*%
%ADD24R,1.150000X1.500000*%
%ADD25R,1.100000X1.300000*%
%ADD26RoundRect,0.250000X0.337500X0.475000X-0.337500X0.475000X-0.337500X-0.475000X0.337500X-0.475000X0*%
%ADD27R,0.254800X0.807999*%
%ADD28R,0.807999X0.254800*%
%ADD29R,4.191000X4.191000*%
%ADD30RoundRect,0.250000X-0.337500X-0.475000X0.337500X-0.475000X0.337500X0.475000X-0.337500X0.475000X0*%
%ADD31RoundRect,0.250000X0.475000X-0.337500X0.475000X0.337500X-0.475000X0.337500X-0.475000X-0.337500X0*%
%ADD32RoundRect,0.250000X-0.350000X-0.450000X0.350000X-0.450000X0.350000X0.450000X-0.350000X0.450000X0*%
G04 APERTURE END LIST*
D10*
%TO.C,J3*%
X166975000Y-84830000D03*
D11*
X166975000Y-87370000D03*
X166975000Y-89910000D03*
X166975000Y-92450000D03*
X166975000Y-94990000D03*
X166975000Y-97530000D03*
X166975000Y-100070000D03*
X166975000Y-102610000D03*
%TD*%
D12*
%TO.C,U3*%
X163440000Y-83620000D03*
D13*
X163440000Y-86160000D03*
X163440000Y-88700000D03*
X163440000Y-91240000D03*
X163440000Y-93780000D03*
X163440000Y-96320000D03*
X163440000Y-98860000D03*
X163440000Y-101400000D03*
X163440000Y-103940000D03*
X160900000Y-103940000D03*
X158360000Y-103940000D03*
X155820000Y-103940000D03*
X153280000Y-103940000D03*
X150740000Y-103940000D03*
X148200000Y-103940000D03*
X148200000Y-101400000D03*
X148200000Y-98860000D03*
X148200000Y-96320000D03*
X148200000Y-93780000D03*
X148200000Y-91240000D03*
X148200000Y-88700000D03*
X148200000Y-86160000D03*
X148200000Y-83620000D03*
%TD*%
D14*
%TO.C,J1*%
X142492000Y-91750000D03*
X142492000Y-96250000D03*
D15*
X144592000Y-97500000D03*
D16*
X144592000Y-95000000D03*
X144592000Y-93000000D03*
X144592000Y-90500000D03*
D17*
X142492000Y-99700000D03*
X142492000Y-88300000D03*
%TD*%
D18*
%TO.C,R_pull38*%
X178500000Y-103000000D03*
X176500000Y-103000000D03*
%TD*%
D19*
%TO.C,J2*%
X208419000Y-96300000D03*
X208419000Y-95200000D03*
X208419000Y-94100000D03*
X208419000Y-93000000D03*
X208419000Y-91900000D03*
X208419000Y-90800000D03*
X208419000Y-89700000D03*
X208419000Y-88600000D03*
D20*
X205789000Y-86655000D03*
D21*
X207789000Y-100545000D03*
D22*
X207939000Y-86255000D03*
D23*
X196789000Y-86655000D03*
D24*
X195664000Y-88460000D03*
X195664000Y-96240000D03*
D22*
X196459000Y-100545000D03*
%TD*%
D25*
%TO.C,Y1*%
X171500000Y-98500000D03*
X171500000Y-96400000D03*
X173150000Y-96400000D03*
X173150000Y-98500000D03*
%TD*%
D26*
%TO.C,C46*%
X175300000Y-93600000D03*
X173225000Y-93600000D03*
%TD*%
D18*
%TO.C,R_Precision47*%
X175300000Y-91600000D03*
X173300000Y-91600000D03*
%TD*%
D27*
%TO.C,U1*%
X178206000Y-93146600D03*
X178714000Y-93146600D03*
X179222000Y-93146600D03*
X179730000Y-93146600D03*
X180238000Y-93146600D03*
X180746000Y-93146600D03*
X181254000Y-93146600D03*
X181762000Y-93146600D03*
X182270000Y-93146600D03*
X182778000Y-93146600D03*
X183286000Y-93146600D03*
X183794000Y-93146600D03*
D28*
X184477400Y-93830000D03*
X184477400Y-94338000D03*
X184477400Y-94846000D03*
X184477400Y-95354000D03*
X184477400Y-95862000D03*
X184477400Y-96370000D03*
X184477400Y-96878000D03*
X184477400Y-97386000D03*
X184477400Y-97894000D03*
X184477400Y-98402000D03*
X184477400Y-98910000D03*
X184477400Y-99418000D03*
D27*
X183794000Y-100101400D03*
X183286000Y-100101400D03*
X182778000Y-100101400D03*
X182270000Y-100101400D03*
X181762000Y-100101400D03*
X181254000Y-100101400D03*
X180746000Y-100101400D03*
X180238000Y-100101400D03*
X179730000Y-100101400D03*
X179222000Y-100101400D03*
X178714000Y-100101400D03*
X178206000Y-100101400D03*
D28*
X177522600Y-99418000D03*
X177522600Y-98910000D03*
X177522600Y-98402000D03*
X177522600Y-97894000D03*
X177522600Y-97386000D03*
X177522600Y-96878000D03*
X177522600Y-96370000D03*
X177522600Y-95862000D03*
X177522600Y-95354000D03*
X177522600Y-94846000D03*
X177522600Y-94338000D03*
X177522600Y-93830000D03*
D29*
X181000000Y-96624000D03*
%TD*%
D30*
%TO.C,C16*%
X186200000Y-94600000D03*
X188275000Y-94600000D03*
%TD*%
D31*
%TO.C,C48*%
X177600000Y-91437500D03*
X177600000Y-89362500D03*
%TD*%
D30*
%TO.C,C15*%
X186200000Y-92570000D03*
X188275000Y-92570000D03*
%TD*%
D32*
%TO.C,R1_39*%
X172100000Y-102300000D03*
X174100000Y-102300000D03*
%TD*%
D18*
%TO.C,R2_39*%
X174100000Y-104300000D03*
X172100000Y-104300000D03*
%TD*%
M02*
